<svg xmlns="http://www.w3.org/2000/svg" width="16" height="16" viewBox="0 0 16 16">
    <g fill="none" fill-rule="evenodd">
        <g>
            <g>
                <g>
                    <path d="M0 0L24 0 24 24 0 24z" transform="translate(-24 -54) translate(20 50)"/>
                    <path fill="#000" fill-rule="nonzero" d="M7.828 11H19c.552 0 1 .448 1 1s-.448 1-1 1H7.828l4.657 4.657c.39.39.39 1.024 0 1.414-.39.39-1.024.39-1.414 0l-6.364-6.364c-.39-.39-.39-1.024 0-1.414l6.364-6.364c.39-.39 1.024-.39 1.414 0 .39.39.39 1.024 0 1.414L7.828 11z" transform="translate(-24 -54) translate(20 50)"/>
                </g>
            </g>
        </g>
    </g>
</svg>
