<svg xmlns="http://www.w3.org/2000/svg" width="18" height="14" viewBox="0 0 18 14">
    <g fill="none" fill-rule="evenodd">
        <g>
            <g>
                <g>
                    <path d="M0 0L20 0 20 20 0 20z" transform="translate(-41 -116) translate(20 98) translate(20 15)"/>
                    <path fill="#333" fill-rule="nonzero" d="M2.5 3.5h15c.46 0 .833.323.833.722v11.556c0 .399-.373.722-.833.722h-15c-.46 0-.833-.323-.833-.722V4.222c0-.399.373-.722.833-.722zm14.167 3.06L10.06 11.69 3.333 6.545v8.51h13.334V6.562zM3.759 4.945l6.292 4.812 6.2-4.812H3.76z" transform="translate(-41 -116) translate(20 98) translate(20 15)"/>
                </g>
            </g>
        </g>
    </g>
</svg>
