<svg xmlns="http://www.w3.org/2000/svg" width="18" height="18" viewBox="0 0 18 18">
    <g fill="none" fill-rule="evenodd">
        <g>
            <g>
                <g>
                    <g>
                        <g>
                            <path d="M0 0L20 0 20 20 0 20z" transform="translate(-142 -456) translate(0 322) translate(141 133)"/>
                            <path fill="#3B5999" fill-rule="nonzero" d="M10 1.667c-4.603 0-8.333 3.73-8.333 8.333 0 4.16 3.047 7.607 7.031 8.233v-5.825H6.582V10h2.116V8.164c0-2.088 1.244-3.241 3.148-3.241.912 0 1.865.162 1.865.162v2.05h-1.05c-1.036 0-1.358.643-1.358 1.302V10h2.31l-.369 2.408h-1.941v5.825c3.983-.625 7.03-4.075 7.03-8.233 0-4.603-3.73-8.333-8.333-8.333z" transform="translate(-142 -456) translate(0 322) translate(141 133)"/>
                        </g>
                    </g>
                </g>
            </g>
        </g>
    </g>
</svg>
