<svg xmlns="http://www.w3.org/2000/svg" width="20" height="20" viewBox="0 0 20 20">
    <g fill="none" fill-rule="evenodd">
        <g>
            <g>
                <g>
                    <path d="M0 0L24 0 24 24 0 24z" transform="translate(-22 -441) translate(20 439)"/>
                    <path fill="#474747" fill-rule="nonzero" d="M12 22C6.477 22 2 17.523 2 12S6.477 2 12 2s10 4.477 10 10-4.477 10-10 10zm0-2c4.418 0 8-3.582 8-8s-3.582-8-8-8-8 3.582-8 8 3.582 8 8 8zm-1-5h2v2h-2v-2zm2-1.645V14h-2v-1.5c0-.552.448-1 1-1 .79 0 1.445-.613 1.497-1.401.052-.789-.517-1.482-1.3-1.586-.784-.104-1.513.418-1.668 1.193l-1.962-.393c.336-1.682 1.842-2.872 3.556-2.812 1.714.06 3.132 1.353 3.35 3.054.217 1.702-.83 3.31-2.473 3.8z" transform="translate(-22 -441) translate(20 439)"/>
                </g>
            </g>
        </g>
    </g>
</svg>
