<svg xmlns="http://www.w3.org/2000/svg" width="25" height="24" viewBox="0 0 25 24">
    <g fill="none" fill-rule="evenodd">
        <g>
            <g>
                <g>
                    <g>
                        <path d="M0 0L24 0 24 24 0 24z" transform="translate(-325 -2178) translate(0 2159) translate(325 19) translate(1)"/>
                        <path fill="#B7BDCC" fill-rule="nonzero" d="M12.954 11.227c1.408-1.408 3.68-1.426 5.11-.052l.053.053c1.425 1.424 1.425 3.735 0 5.16l-5.657 5.658c-.254.253-.666.253-.92 0l-5.657-5.657c-1.425-1.426-1.425-3.737 0-5.163 1.426-1.425 3.737-1.425 5.163 0l.705.707.248.248.955-.954zm.919.92l-1.875 1.87-1.873-1.872c-.916-.917-2.405-.917-3.323 0-.916.917-.916 2.406 0 3.323l4.95 4.95.248.248 5.197-5.198c.917-.917.917-2.406 0-3.323-.918-.918-2.406-.917-3.324.002zM12 1.35c2.21 0 4 1.79 4 4s-1.79 4-4 4-4-1.79-4-4 1.79-4 4-4zm0 1.3c-1.492 0-2.7 1.208-2.7 2.7 0 1.492 1.208 2.7 2.7 2.7 1.492 0 2.7-1.208 2.7-2.7 0-1.492-1.208-2.7-2.7-2.7z" transform="translate(-325 -2178) translate(0 2159) translate(325 19) translate(1)"/>
                    </g>
                </g>
            </g>
        </g>
    </g>
</svg>
