<svg xmlns="http://www.w3.org/2000/svg" width="13" height="14" viewBox="0 0 13 14">
    <g fill="none" fill-rule="evenodd">
        <g>
            <g>
                <g>
                    <path d="M0 0L15 0 15 15 0 15z" transform="translate(-21 -385) translate(20 384)"/>
                    <path fill="#000" fill-rule="nonzero" d="M7.5 14.83l-3.978-3.978c-2.196-2.196-2.196-5.758 0-7.954C5.72.7 9.282.7 11.478 2.898c2.197 2.196 2.197 5.758 0 7.954L7.5 14.83zm3.094-4.861c1.708-1.709 1.708-4.479 0-6.187-1.709-1.709-4.479-1.709-6.188 0-1.708 1.708-1.708 4.478 0 6.187L7.5 13.063l3.094-3.094zM7.5 8.125c-.69 0-1.25-.56-1.25-1.25s.56-1.25 1.25-1.25 1.25.56 1.25 1.25-.56 1.25-1.25 1.25z" transform="translate(-21 -385) translate(20 384)"/>
                </g>
            </g>
        </g>
    </g>
</svg>
