<svg xmlns="http://www.w3.org/2000/svg" width="16" height="18" viewBox="0 0 16 18">
    <g fill="none" fill-rule="evenodd">
        <g>
            <g>
                <g>
                    <path d="M0 0L20 0 20 20 0 20z" transform="translate(-42 -164) translate(20 98) translate(20 65)"/>
                    <path fill="#333" fill-rule="nonzero" d="M15.833 8.333h.834c.46 0 .833.373.833.834V17.5c0 .46-.373.833-.833.833H3.333c-.46 0-.833-.373-.833-.833V9.167c0-.46.373-.834.833-.834h.834V7.5c0-2.084 1.111-4.01 2.916-5.052 1.805-1.042 4.029-1.042 5.834 0 1.805 1.042 2.916 2.968 2.916 5.052v.833zM4.167 10v6.667h11.666V10H4.167zm5 1.667h1.666V15H9.167v-3.333zm5-3.334V7.5c0-2.301-1.866-4.167-4.167-4.167-2.301 0-4.167 1.866-4.167 4.167v.833h8.334z" transform="translate(-42 -164) translate(20 98) translate(20 65)"/>
                </g>
            </g>
        </g>
    </g>
</svg>
