<svg xmlns="http://www.w3.org/2000/svg" width="19" height="20" viewBox="0 0 19 20">
    <g fill="none" fill-rule="evenodd">
        <g>
            <g>
                <g>
                    <path d="M0 0L24 0 24 24 0 24z" transform="translate(-21 -379) translate(20 377)"/>
                    <path fill="#474747" fill-rule="nonzero" d="M4 18h2v2h12V4H6v2H4V3c0-.552.448-1 1-1h14c.552 0 1 .448 1 1v18c0 .552-.448 1-1 1H5c-.552 0-1-.448-1-1v-3zm2-7h7v2H6v3l-5-4 5-4v3z" transform="translate(-21 -379) translate(20 377)"/>
                </g>
            </g>
        </g>
    </g>
</svg>
