<svg xmlns="http://www.w3.org/2000/svg" width="163" height="110" viewBox="0 0 163 110">
    <g fill="none" fill-rule="evenodd">
        <g fill-rule="nonzero">
            <g transform="translate(-106 -157) translate(106 157)">
                <path fill="#FFF" d="M87.38 29.182H162.131V109.34700000000001H87.38z"/>
                <path fill="#231F20" d="M162.131 109.617H87.38c-.149 0-.27-.12-.27-.27V29.183c0-.149.121-.27.27-.27h74.751c.15 0 .27.121.27.27v80.166c0 .148-.12.27-.27.27zm-74.481-.54h74.212V29.453H87.65v79.626z"/>
                <path fill="#FFF" d="M87.38 29.182H162.131V38.057H87.38z"/>
                <path fill="#231F20" d="M162.131 38.327H87.38c-.149 0-.27-.12-.27-.27v-8.875c0-.149.121-.27.27-.27h74.751c.15 0 .27.121.27.27v8.876c0 .149-.12.27-.27.27zm-74.481-.539h74.212v-8.336H87.65v8.336z"/>
                <circle cx="91.375" cy="33.469" r="1.138" fill="#ED3833"/>
                <circle cx="95.463" cy="33.469" r="1.138" fill="#D1D3D4"/>
                <circle cx="99.55" cy="33.469" r="1.138" fill="#D1D3D4"/>
                <path fill="#FFF" d="M120.04 72.983s-16.667 2.378-18.905 0c-2.237-2.378-7.365-15.945-7.365-15.945l-5.932 4.896s4.454 25.397 12.009 25.263c7.554-.135 24.475-6.315 24.475-6.315l-4.282-7.9z"/>
                <path fill="#231F20" d="M99.782 87.466c-7.657 0-12.03-24.442-12.213-25.489-.014-.094.02-.19.091-.253l5.932-4.896c.068-.055.157-.075.242-.054.083.026.15.087.184.167.048.135 5.133 13.545 7.306 15.859 1.758 1.86 14.074.571 18.673-.087.112-.012.22.043.275.14l4.287 7.878c.038.068.044.149.017.222-.027.072-.085.13-.157.156-.173.065-17.061 6.222-24.572 6.357h-.065zM88.129 62.042c.389 2.108 4.746 24.885 11.647 24.885h.06c6.88-.124 21.816-5.392 24.103-6.217l-4.044-7.436c-.863.119-4.568.61-8.45.868-5.985.4-9.522.07-10.51-.976-2.07-2.2-6.443-13.48-7.284-15.68l-5.522 4.556z"/>
                <path fill="#FFF" d="M0.712 0.647H75.46300000000001V80.81200000000001H0.712z"/>
                <path fill="#231F20" d="M75.49 81.087H.712c-.15 0-.27-.12-.27-.27V.653c0-.148.12-.27.27-.27H75.49c.15 0 .27.122.27.27v80.166c0 .149-.12.27-.27.27zm-74.482-.539h74.186V.922H.98l.027 79.626z"/>
                <path fill="#FFF" d="M0.712 0.647H75.46300000000001V9.522H0.712z"/>
                <path fill="#231F20" d="M75.49 9.798H.712c-.148-.003-.267-.122-.27-.27V.652c0-.148.12-.27.27-.27H75.49c.15 0 .27.122.27.27v8.876c0 .149-.12.27-.27.27zm-74.482-.54h74.186V.922H.98l.027 8.336z"/>
                <circle cx="4.707" cy="4.934" r="1.138" fill="#ED3833"/>
                <circle cx="8.795" cy="4.934" r="1.138" fill="#D1D3D4"/>
                <circle cx="12.882" cy="4.934" r="1.138" fill="#D1D3D4"/>
                <path fill="#231F20" d="M20.62 71.656L18.862 80.818 47.402 80.818 45.833 76.164z"/>
                <path fill="#231F20" d="M47.402 81.087h-28.53c-.079 0-.154-.035-.204-.097-.053-.06-.075-.142-.06-.22l1.758-9.168c.027-.145.167-.241.313-.215l25.208 4.508c.097.017.177.085.21.178l1.57 4.653c.027.082.014.172-.036.243-.05.07-.131.112-.218.113l-.01.005zm-28.211-.539h27.834l-1.397-4.147-24.803-4.432-1.634 8.579z"/>
                <path fill="#FFF" d="M56.99 45.725L73.177 65.229 66.049 68.146 48.707 49.694z"/>
                <path fill="#231F20" d="M66.049 68.416c-.075 0-.145-.031-.195-.087L48.53 49.877c-.06-.06-.086-.147-.07-.231.016-.086.072-.159.151-.195l8.283-3.968c.11-.054.244-.025.323.07l16.177 19.503c.055.066.075.154.054.238-.023.083-.083.15-.162.183l-7.123 2.917c-.035.017-.074.025-.113.022zM49.16 49.78L66.12 67.828l6.616-2.696L56.92 46.076l-7.76 3.704z"/>
                <path fill="#ED3833" d="M52.126 35.561L60.327 46.249 49.15 52.379z"/>
                <path fill="#ED3833" d="M52.126 35.588c-.685-1.078-16.236-5.974-21.337-2.383-5.1 3.591-10.51 31.36-11.916 39.956l31.08 7.991s5.942-39.498 2.173-45.564z"/>
                <path fill="#231F20" d="M51.479 74.185h-.032c-.071-.012-.135-.051-.176-.11-.042-.059-.058-.132-.046-.202.027-.243 2.783-24.265 1.893-30.283-.014-.096.024-.193.1-.254.076-.06.179-.076.27-.04.09.036.155.117.17.213.9 6.099-1.775 29.436-1.888 30.423-.011.15-.141.263-.291.253z"/>
                <path fill="#FFF" d="M43.51 28.864c-1.714-.49-3.26-1.442-4.47-2.75-.564-.571-.94-1.301-1.08-2.092-.111-.815.328-1.606 1.08-1.941-.737-.5-1.187-1.326-1.209-2.216-.01-.88.22-1.748.664-2.508.539-1.003 1.429-1.957 2.56-1.99-.409-.884-.819-1.908-.414-2.792.23-.434.564-.804.97-1.079.757-.589 1.568-1.105 2.421-1.542.459-.232 1.041-.437 1.45-.13.518-1.817 2.02-3.186 3.878-3.531.903-.186 1.842-.064 2.669.345.774.57 1.495 1.206 2.157 1.903 1.32-.383 3.418 0 4.394.976.86.906 1.158 2.208.777 3.397.95.537 1.772 1.272 2.41 2.157.637.9.835 2.039.54 3.1-.33 1.067-1.339 1.776-2.454 1.726.897.958.943 2.433.108 3.446-.875.96-2.244 1.292-3.462.84-.168-.08-.353-.118-.54-.112-.202.068-.387.183-.538.334-.54.426-1.24.28-1.84.54-.81.474-1.58 1.015-2.302 1.617-.748.504-1.522.97-2.318 1.396-.88.475-1.715 1.197-2.696 1.483-.863.254-1.338-.124-2.157-.377l-.599-.2z"/>
                <path fill="#231F20" d="M45.715 29.786c-.398-.016-.788-.111-1.149-.28-.167-.06-.34-.13-.539-.189l-.615-.2c-1.755-.51-3.339-1.486-4.583-2.825-.606-.61-1.004-1.394-1.138-2.243-.086-.767.228-1.524.83-2.006-.591-.566-.94-1.339-.976-2.157-.006-.924.239-1.834.707-2.631.302-.572 1.116-1.833 2.4-2.087-.373-.863-.658-1.812-.26-2.696.25-.468.61-.87 1.047-1.17.772-.604 1.597-1.138 2.464-1.596.42-.253.917-.348 1.402-.27.627-1.771 2.153-3.073 4-3.413.96-.198 1.96-.069 2.837.367.763.562 1.483 1.178 2.157 1.844 1.353-.318 3.456.027 4.492 1.078.877.924 1.219 2.233.906 3.467.915.535 1.706 1.26 2.318 2.125.682.982.878 2.22.534 3.365-.322.974-1.148 1.697-2.157 1.887.638 1.058.54 2.403-.242 3.36-.946 1.06-2.447 1.427-3.775.921h-.06c-.103-.047-.215-.073-.328-.075-.123.036-.234.103-.324.194l-.108.086c-.35.235-.755.374-1.175.405-.247.023-.488.083-.717.178-.546.283-1.057.627-1.526 1.024-.254.194-.502.383-.739.54-.75.508-1.527.974-2.33 1.396-.285.162-.57.345-.868.539-.57.41-1.197.737-1.86.97-.203.06-.414.09-.625.092zM44.976 9.95c-.29.02-.573.107-.825.253-.839.431-1.637.939-2.383 1.515-.367.251-.672.583-.89.97-.356.772.032 1.732.42 2.562.044.08.044.178 0 .259-.05.075-.13.123-.22.13-1.235.032-2.044 1.299-2.335 1.843-.419.719-.637 1.536-.631 2.368.016.802.418 1.549 1.078 2.005.09.052.142.152.131.256-.01.104-.08.192-.18.224-.63.297-.991.972-.889 1.661.126.736.479 1.415 1.008 1.941 1.177 1.28 2.682 2.212 4.352 2.696.194.07.399.135.604.2.205.065.388.135.539.2.437.237.948.299 1.429.172.612-.219 1.19-.524 1.715-.906.296-.189.598-.388.91-.54.788-.42 1.553-.88 2.292-1.38.232-.161.47-.345.718-.539.497-.418 1.04-.78 1.617-1.078.276-.115.566-.19.863-.221.33-.018.65-.122.927-.302l.103-.076c.161-.158.366-.265.588-.307.201-.016.403.02.587.102h.054c1.119.416 2.377.11 3.182-.77.739-.906.702-2.217-.087-3.08-.084-.078-.108-.203-.059-.307.048-.106.16-.17.275-.156.994.054 1.897-.578 2.184-1.532.274-.983.087-2.038-.507-2.868-.614-.852-1.407-1.559-2.324-2.071-.108-.066-.155-.199-.113-.318.355-1.102.08-2.31-.717-3.15-.917-.943-2.934-1.255-4.12-.905-.07.026-.146.021-.212-.011-.066-.033-.116-.091-.138-.162-.641-.629-1.322-1.216-2.039-1.757-.77-.387-1.648-.501-2.49-.324-1.755.327-3.175 1.617-3.668 3.332-.023.088-.087.158-.172.19-.085.031-.181.017-.253-.039-.098-.058-.21-.086-.324-.08z"/>
                <path fill="#FFF" d="M55.911 24.755s1.214 4.314.496 4.853c-.717.54-2.157-.42-2.157-.42"/>
                <path fill="#231F20" d="M55.83 30.083c-.631-.062-1.237-.285-1.757-.647-.12-.088-.15-.255-.065-.378.084-.12.25-.152.372-.07.334.232 1.396.804 1.855.432.35-.28 0-2.6-.583-4.595-.038-.142.043-.29.184-.334.144-.038.292.046.334.189.297 1.046 1.203 4.519.405 5.16-.212.167-.476.253-.745.243z"/>
                <path fill="#FFF" d="M57.626 16.759c.186.194.297.448.313.717.114.947.052 1.907-.184 2.83-.403 1.829-.92 3.63-1.547 5.393-.773 2.351-1.596 4.688-2.47 7.01-.539 1.466-4.438.27-4.977-.394l-1.278 6.093s-2.016-.08-4.68-2.518c-2.664-2.437-2.453-3.187-2.453-3.187l2.426-6.734s2.55.83 5.036-1.731c.394-.41.728-1.143 1.192-1.45.566-.384 1.219-.292 1.725-.863.466-.544.65-1.275.496-1.974-.032-.151-.07-.334.044-.437.074-.052.162-.08.253-.08.508-.09.958-.378 1.252-.802.294-.423.406-.946.312-1.453.976.313 1.941-.463 2.696-1.175-.232.226 1.504.54 1.531.54.116.053.222.126.313.215z"/>
                <path fill="#231F20" d="M47.483 38.678c-.086 0-2.157-.113-4.853-2.594-2.582-2.367-2.593-3.235-2.534-3.456l2.427-6.746c.048-.139.2-.213.34-.167.096.033 2.426.739 4.755-1.66.16-.179.304-.37.432-.572.212-.35.484-.66.803-.917.248-.153.517-.27.798-.345.333-.065.64-.228.879-.469.413-.477.579-1.12.447-1.736-.091-.238-.041-.507.13-.696.106-.089.239-.14.377-.145.442-.067.834-.318 1.079-.69.265-.351.368-.799.28-1.23-.021-.095.01-.193.081-.259.07-.069.172-.092.264-.06.841.265 1.731-.458 2.41-1.115.051-.051.12-.08.192-.08.072 0 .14.029.191.08.034.038.058.085.07.134.404.152.821.266 1.246.34l.124.032c.143.055.276.134.394.232.226.237.365.543.393.868.124.981.061 1.976-.183 2.934-.364 1.667-.834 3.31-1.407 4.917l-.173.54c-.766 2.345-1.618 4.707-2.47 7.01-.21.482-.676.804-1.202.83-1.34.1-2.68-.194-3.855-.847L47.73 38.49c-.032.11-.133.187-.248.189zm-6.88-5.888s.07.776 2.383 2.9c2.044 1.872 3.705 2.32 4.287 2.422l1.224-5.856c.021-.102.1-.183.201-.207.102-.024.208.012.274.094.307.377 2.394 1.175 3.73.96.332-.007.633-.196.783-.491.873-2.297 1.704-4.654 2.464-7.01l.173-.54c.558-1.586 1.015-3.207 1.37-4.852.222-.88.284-1.794.183-2.696-.013-.21-.092-.41-.227-.572-.071-.057-.151-.103-.237-.135h-.054c-.491-.081-.97-.22-1.43-.415-.657.604-1.471 1.181-2.334 1.11 0 .457-.14.901-.404 1.273-.329.496-.852.83-1.44.917h-.119c.027.057.045.116.054.178.186.792-.02 1.625-.555 2.238-.302.316-.69.535-1.116.63-.233.058-.454.15-.658.276-.26.22-.483.483-.658.776-.146.225-.31.438-.49.636-2.157 2.211-4.314 2.012-5.058 1.866l-2.346 6.503v-.005z"/>
                <path fill="#FFF" d="M49.764 23.483c.126-.61.077-1.244-.14-1.828-.113-.472-.295-.924-.54-1.343-.23-.411-.63-.7-1.094-.792-.43-.027-.853.132-1.16.436-.3.305-.53.673-.668 1.079-.655 1.78-.31 3.774.906 5.23l-.086-.183"/>
                <path fill="#231F20" d="M47.041 26.535c-.08 0-.154-.036-.205-.097-1.272-1.534-1.635-3.627-.954-5.5.154-.443.407-.845.739-1.176.36-.36.86-.545 1.37-.507.564.083 1.06.419 1.347.912.248.444.43.921.54 1.418.232.633.28 1.32.14 1.979-.044.149-.2.234-.348.191-.149-.043-.235-.199-.192-.348.102-.564.05-1.145-.15-1.682-.098-.443-.26-.87-.48-1.267-.201-.353-.55-.598-.95-.669-.352-.018-.695.115-.943.367-.265.277-.464.611-.582.976-.574 1.576-.332 3.334.647 4.696.071.022.13.073.161.14l.087.184c.056.122.015.266-.097.34-.04.024-.084.04-.13.043zM48.761 32.315s-1.806-1.262-2.302-2.939c0 0-1.014 3.635 1.73 5.651l.572-2.712z"/>
                <path fill="#231F20" d="M48.19 35.297c-.056 0-.11-.017-.157-.048-2.863-2.109-1.844-5.932-1.838-5.932.031-.117.137-.199.258-.2.12.002.224.08.26.195.458 1.558 2.156 2.777 2.2 2.793.087.062.129.17.107.275l-.571 2.696c-.017.091-.08.167-.168.2-.029.012-.06.02-.091.021zm-1.618-4.966c-.21 1.552.323 3.113 1.44 4.211l.442-2.114c-.752-.574-1.389-1.286-1.877-2.097h-.005z"/>
                <circle cx="54.872" cy="22.362" r="1" fill="#231F20" transform="rotate(-70.115 54.872 22.362)"/>
                <path fill="#FFF" d="M54.229 29.21l-2.308-1.834s-1.785 2.917-.9 4.454c.884 1.537 2.631-1.095 3.208-2.62z"/>
                <path fill="#231F20" d="M51.684 32.569c-.391-.012-.741-.247-.9-.604-.95-1.656.83-4.605.91-4.73.04-.065.108-.11.184-.123.075-.015.152.005.21.054l2.308 1.833c.09.075.124.197.086.307-.372.982-1.563 3.166-2.696 3.236l-.102.027zm.318-4.783c-.4.728-1.397 2.782-.75 3.914.178.313.35.335.464.33.647-.055 1.672-1.473 2.19-2.729l-1.904-1.515z"/>
                <path fill="#FFF" d="M55.159 36.94L90.267 36.94 90.267 103.744 55.159 103.744z" transform="rotate(52.52 72.713 70.342)"/>
                <path fill="#231F20" d="M56.887 104.861c-.083 0-.16-.04-.21-.108L35.313 76.898c-.044-.057-.063-.129-.054-.2.011-.072.047-.137.103-.183l53.01-40.646c.056-.045.128-.066.2-.056.07.009.135.047.178.104l21.363 27.861c.045.057.064.129.054.2-.01.07-.047.133-.102.178l-53.01 40.646c-.048.038-.107.059-.168.06zM35.907 76.78l21.029 27.435 52.579-40.322-21.03-27.43-52.579 40.317z"/>
                <path fill="#D1D3D4" d="M61.4 96.013h-.048c-.075-.01-.14-.054-.178-.119l-.119-.162c-1.811-2.356-5.187-2.802-7.549-.997-.056.045-.127.065-.199.056-.07-.01-.135-.047-.178-.105l-9-11.738c-.09-.118-.068-.287.049-.378 2.356-1.811 2.802-5.188.997-7.549-.038-.054-.08-.107-.124-.156-.054-.054-.08-.13-.07-.205.006-.075.043-.144.103-.189l38.791-29.743c.059-.048.136-.068.21-.055.075.014.14.06.178.125l.113.156c1.81 2.358 5.187 2.807 7.55 1.003.057-.041.128-.06.199-.054.07.011.133.048.178.103l9 11.739c.09.117.068.286-.05.377-2.355 1.812-2.801 5.188-.997 7.55l.13.155c.053.054.08.13.07.205-.006.076-.043.146-.103.194L61.563 95.98c-.05.029-.106.04-.163.033zm-4.626-2.934c1.828-.001 3.555.84 4.68 2.281l38.35-29.403c-1.886-2.512-1.487-6.059.91-8.088L92.04 46.545c-2.593 1.79-6.133 1.241-8.062-1.25L45.623 74.702c1.886 2.512 1.486 6.059-.911 8.088l8.676 11.324c.997-.682 2.178-1.043 3.386-1.036z"/>
                <path fill="#FFF" d="M44.388 51.463S60.856 71.58 63.832 72.298c2.977.717 7.884-.162 7.55 1.413-.335 1.574-5.08 1.58-5.08 1.58s5.813 2.534 5.096 4.243c-.718 1.71-3.462 3.106-5.932 2.055-2.47-1.052-3.834-2.896-5.98-3.947-2.146-1.052-22.28-19.692-22.28-19.692l7.182-6.487z"/>
                <path fill="#231F20" d="M67.256 82.225c-.652.001-1.298-.131-1.898-.388-1.222-.571-2.361-1.306-3.386-2.184-.801-.682-1.675-1.275-2.604-1.769-2.157-1.078-21.526-18.975-22.35-19.74-.056-.052-.087-.124-.087-.2 0-.076.034-.149.092-.2l7.182-6.47c.056-.047.128-.07.2-.064.074.006.141.04.188.096 4.567 5.576 16.932 20.172 19.304 20.739 1.271.239 2.562.354 3.855.345 1.818.048 3.236.086 3.732.695.15.198.204.454.145.696-.285 1.267-2.723 1.618-4.222 1.747 1.78.873 4.853 2.637 4.222 4.125-.495 1.019-1.367 1.806-2.431 2.195-.617.25-1.276.378-1.942.377zM37.6 57.96c2.156 2.017 20.042 18.485 22.005 19.45.961.511 1.865 1.124 2.696 1.828.986.853 2.085 1.564 3.268 2.113 1.095.46 2.328.46 3.424 0 .939-.332 1.712-1.017 2.157-1.908.425-1.014-2.643-2.885-4.956-3.893-.117-.051-.182-.177-.156-.302.023-.127.135-.218.264-.216 1.742 0 4.594-.372 4.815-1.364.03-.084.015-.177-.038-.248-.323-.416-1.85-.453-3.321-.491-1.333.009-2.664-.112-3.974-.361-2.896-.69-17.52-18.398-19.412-20.7L37.6 57.96z"/>
                <path fill="#ED3833" d="M38.84 41.288L45.601 50.163 35.976 59.039 30.196 52.379"/>
                <path fill="#231F20" d="M35.976 59.314c-.072-.005-.14-.038-.188-.092l-5.78-6.66c-.103-.104-.103-.272 0-.377.05-.05.119-.08.19-.08.073 0 .142.03.192.08l5.597 6.47 9.253-8.508-6.616-8.681c-.09-.12-.068-.29.051-.38.12-.091.29-.068.38.05l6.778 8.86c.083.113.069.27-.032.367l-9.625 8.875c-.055.05-.126.076-.2.076z"/>
                <path fill="#FFF" d="M138.39 53.382c1.596.104 3.154.533 4.578 1.262 2.48 1.186 4.853 3.138 5.392 5.834.447 2.157-.383 4.433-1.435 6.4-1.051 1.97-2.345 3.846-2.933 5.997-.588 2.151-.313 4.74 1.391 6.18-2.248-.998-4.54-2.028-6.352-3.689-1.078-.976-1.973-2.238-2.076-3.672.004-1.188.293-2.359.842-3.413.69-1.618 1.428-3.262 1.536-5.015.108-1.752-.539-3.677-2.06-4.562-1.326-.776-5.667-.7-4.987-3.138.55-1.936 4.55-2.27 6.104-2.184z"/>
                <path fill="#231F20" d="M145.405 79.297c-.036.008-.072.008-.108 0-2.243-.997-4.562-2.027-6.427-3.737-1.321-1.213-2.066-2.545-2.157-3.855 0-1.231.296-2.444.862-3.537l.092-.21c.647-1.516 1.321-3.085 1.424-4.713.118-1.866-.637-3.56-1.925-4.314-.542-.249-1.113-.43-1.699-.54-1.283-.301-2.74-.646-3.284-1.563-.233-.414-.282-.907-.134-1.359.593-2.124 4.788-2.443 6.351-2.378 1.635.102 3.23.54 4.686 1.289 1.79.857 4.891 2.777 5.565 6.023.388 1.893-.076 3.985-1.461 6.578-.27.513-.54 1.014-.847 1.521-.87 1.382-1.563 2.868-2.065 4.422-.496 1.795-.448 4.416 1.305 5.93.105.087.129.238.054.351-.057.069-.144.103-.232.092zm-7.366-25.683c-1.806 0-5.03.453-5.457 1.995-.11.31-.082.651.076.939.426.722 1.763 1.035 2.944 1.315.638.11 1.259.306 1.844.583 1.467.852 2.33 2.744 2.195 4.81-.108 1.725-.798 3.337-1.472 4.89l-.092.216c-.49 1.154-.895 2.2-.814 3.284.108 1.477 1.137 2.696 1.99 3.494 1.538 1.307 3.272 2.364 5.138 3.133-1.078-1.656-1.078-3.888-.625-5.495.512-1.6 1.224-3.129 2.119-4.551.286-.502.571-.998.841-1.504 1.321-2.475 1.769-4.454 1.407-6.218-.625-3.02-3.57-4.853-5.268-5.645-1.389-.716-2.91-1.136-4.47-1.235l-.356-.01z"/>
                <path fill="#231F20" d="M136.449 53.922c.524.91.726 1.97.571 3.008-.045.702-.299 1.374-.728 1.93-.574.643-1.417.977-2.275.901-.382-.005-.747-.153-1.025-.415-.2-.249-.331-.546-.377-.863-.464-2.21 1.11-8.843 3.834-4.561z"/>
                <path fill="#231F20" d="M134.232 60.02h-.237c-.45-.01-.878-.19-1.202-.501-.234-.285-.387-.628-.443-.993-.34-1.617.351-5.553 1.92-6.195.787-.318 1.618.162 2.405 1.434.558.963.775 2.086.615 3.187-.052.753-.326 1.474-.788 2.07-.578.644-1.405 1.007-2.27.998zm.496-7.247c-.087 0-.173.019-.253.054-1.175.48-1.925 4.044-1.618 5.586.039.267.144.52.308.734.235.208.537.325.852.328.771.07 1.53-.228 2.049-.803.395-.515.628-1.137.668-1.785.145-.979-.045-1.978-.539-2.836-.361-.61-.911-1.278-1.467-1.278z"/>
                <path fill="#FFF" d="M122.219 68.222c.647.75 1.617 1.175 3.235 1.008 1.339-.183 2.61-.698 3.699-1.5 4.34-3.069 6.57-8.329 5.759-13.582-.885-5.209-6.083-10.385-11.674-8.385-1.908.698-3.41 2.204-4.104 4.114-.767-.253-1.612-.031-2.157.567-1.445 1.445-1.385 2.981-.609 4.712 1.278 2.842 2.847 5.549 3.996 8.45.652 1.693.911 3.51 1.855 4.616z"/>
                <path fill="#231F20" d="M124.77 69.559c-1.047.066-2.064-.356-2.756-1.143-.648-.905-1.108-1.93-1.354-3.015-.172-.539-.35-1.121-.539-1.676-.674-1.699-1.51-3.36-2.319-4.972-.539-1.127-1.148-2.292-1.671-3.462-.922-2.054-.712-3.645.663-5.02.565-.598 1.397-.867 2.206-.712.756-1.874 2.273-3.338 4.173-4.028 2.21-.793 4.662-.535 6.66.701 2.836 1.747 4.796 4.617 5.392 7.894.78 5.352-1.507 10.69-5.921 13.815-1.126.825-2.44 1.357-3.823 1.548-.236.036-.474.06-.712.07zm-2.368-1.515c.658.77 1.618 1.078 3.003.916 1.295-.178 2.525-.678 3.575-1.456 4.24-3.018 6.422-8.162 5.646-13.307-.561-3.12-2.422-5.855-5.117-7.522-1.86-1.15-4.141-1.391-6.201-.658-1.834.666-3.278 2.112-3.942 3.947-.025.07-.078.126-.145.156-.069.032-.148.032-.216 0-.679-.205-1.415.006-1.882.54-1.224 1.223-1.391 2.544-.54 4.415.54 1.16 1.08 2.32 1.667 3.44.809 1.618 1.65 3.3 2.335 5.015.226.572.404 1.154.577 1.72.233 1.012.658 1.969 1.25 2.82l-.01-.026z"/>
                <path fill="#FFF" d="M118.045 56.197s-3.386 2.89-3.111 3.775c.275.884 2.038.857 2.038.857"/>
                <path fill="#231F20" d="M116.94 61.093c-.318 0-1.952-.048-2.265-1.046-.313-.997 2.367-3.348 3.192-4.055.115-.095.285-.08.383.033.047.053.07.124.064.195-.007.071-.041.137-.096.182-1.57 1.343-3.16 3.057-3.025 3.483.178.54 1.364.68 1.774.669.146 0 .266.117.27.264 0 .148-.117.27-.265.275h-.032z"/>
                <path fill="#FFF" d="M116.206 75.657c3.807.292 10.305-3.542 10.353-3.688.692-2.472 1.259-4.977 1.699-7.506 0 0-2.578-.717-3.235-4.216-.658-3.5-3.872-4.028-5.145-8.628-1.85.793-2.156 3.505-2.63 5.193-.666 2.38-1.273 4.77-1.823 7.171-.356 1.52 3.526 2.696 4.313 2.421-.82 2.276-.82 2.276-3.532 9.253z"/>
                <path fill="#231F20" d="M116.605 75.943h-.42c-.084-.007-.16-.053-.205-.124-.04-.076-.04-.167 0-.243 2.54-6.546 2.696-6.95 3.424-8.843-1.337-.107-2.612-.606-3.667-1.434-.423-.311-.633-.836-.539-1.353.54-2.395 1.165-4.81 1.828-7.177.075-.28.151-.594.232-.922.393-1.667.89-3.737 2.556-4.449.07-.032.15-.032.22 0 .071.035.124.098.146.173.637 2.313 1.764 3.537 2.847 4.723 1.084 1.186 1.974 2.157 2.298 3.92.598 3.279 2.922 3.98 3.02 4.007.134.036.218.17.193.307-.439 2.544-1.01 5.064-1.71 7.549-.145.377-6.432 3.866-10.223 3.866zm0-.54c3.484 0 9.07-3.094 9.706-3.585.662-2.363 1.201-4.758 1.618-7.177-.68-.275-2.62-1.31-3.176-4.346-.291-1.618-1.16-2.556-2.157-3.65-1.32-1.287-2.308-2.874-2.88-4.627-1.202.723-1.617 2.497-1.967 3.936-.081.335-.157.653-.238.944-.658 2.362-1.272 4.767-1.822 7.155-.036.327.108.647.377.836.992.922 3.165 1.413 3.63 1.267.098-.028.204.001.274.076.07.075.091.184.054.28-.857 2.227-.857 2.265-3.43 8.892h.011z"/>
                <path fill="#FFF" d="M116.007 62.242s1.515 1.66 3.036.037"/>
                <path fill="#231F20" d="M117.603 63.26c-.676-.048-1.31-.346-1.78-.835-.065-.071-.087-.172-.058-.264.028-.093.105-.163.199-.184.095-.02.193.01.259.081.366.382.858.617 1.385.664.486-.033.938-.259 1.257-.626.066-.07.165-.1.26-.077.093.022.168.093.196.186.028.092.004.193-.063.263-.414.487-1.016.775-1.655.793zM119.787 66.415s2.022.48 3.36-.63c0 0-1.171 3.59-4.563 3.747l1.203-3.117z"/>
                <path fill="#231F20" d="M118.584 69.801c-.086.001-.168-.039-.22-.107-.052-.077-.064-.173-.033-.26l1.208-3.116c.05-.124.181-.195.312-.167 0 0 1.91.437 3.123-.577.096-.07.227-.07.323 0 .1.067.145.192.108.307 0 .038-1.273 3.775-4.81 3.937l-.01-.017zm1.375-3.078l-.965 2.502c1.947-.28 3.052-1.812 3.554-2.767-.823.322-1.718.414-2.589.265z"/>
                <circle cx="119.184" cy="55.292" r="1" fill="#231F20" transform="rotate(-77.97 119.184 55.292)"/>
                <path fill="#FFF" d="M122.526 58.801c.236-.576.628-1.075 1.132-1.44.346-.33.738-.608 1.165-.824.44-.21.951-.21 1.391 0 .37.215.631.578.717.997.083.419.068.85-.043 1.262-.44 1.837-1.828 3.3-3.64 3.834l.173-.103"/>
                <path fill="#231F20" d="M123.249 62.878c-.108.002-.207-.062-.249-.162-.051-.123-.005-.265.108-.334l.173-.108c.063-.038.14-.048.21-.027 1.566-.585 2.74-1.908 3.133-3.532.101-.37.116-.76.043-1.138-.066-.346-.278-.646-.582-.825-.37-.16-.793-.149-1.154.033-.396.206-.76.47-1.079.782-.472.33-.845.783-1.078 1.31-.046.141-.197.22-.34.178-.14-.044-.22-.193-.178-.334.253-.626.677-1.169 1.224-1.564.364-.354.78-.649 1.235-.874.511-.246 1.107-.246 1.618 0 .441.253.753.683.857 1.181.09.458.075.93-.043 1.38-.471 1.932-1.93 3.468-3.834 4.04l-.064-.006z"/>
                <path fill="#ED3833" d="M115.57 72.826s11.54-4.658 15.147-.593c3.607 4.066 5.608 13.48 4.082 33.874l-26.994-.96s2.157-29.813 7.765-32.32z"/>
                <path fill="#FFF" d="M99.582 78.995c-1.245-1.078-11.614-14.812-11.75-17.06-.134-2.25-1.078-6.17-1.617-5.894-.539.275-.809 3.85-.809 3.85s-2.56-4.605-3.64-4.568c-1.078.038-3.644 3.02-3.51 4.568.135 1.547 12.009 29.872 17.536 30.681 5.527.809 19.908-5.667 21.218-5.931 1.31-.265 6.11-10.785 0-12.332 0-.006-16.177 7.748-17.428 6.686z"/>
                <path fill="#231F20" d="M96.843 90.907c-.36.002-.72-.022-1.078-.07-5.775-.842-17.616-29.205-17.794-30.925-.087-1.019.83-2.453 1.617-3.375.302-.34 1.348-1.456 2.157-1.483.965 0 2.572 2.48 3.44 3.958.14-1.348.405-2.977.885-3.236.12-.067.267-.067.388 0 .75.432 1.51 4.271 1.617 6.104.125 2.066 10.17 15.6 11.653 16.867.771.54 9.318-2.976 17.142-6.724.056-.024.12-.024.178 0 2.156.54 3.294 2.254 3.235 4.912-.081 3.365-2.206 7.733-3.235 7.948-.27.054-1.262.442-2.524.939-4.303 1.703-12.947 5.085-17.68 5.085zm-15.06-35.314c-.302 0-.96.42-1.742 1.3-.96 1.078-1.564 2.28-1.504 2.97.156 1.812 12.197 29.695 17.303 30.44 4.233.62 13.88-3.155 18.517-4.967 1.38-.539 2.297-.9 2.61-.965.577-.119 2.733-3.963 2.814-7.43.054-2.373-.862-3.84-2.733-4.352-.62.297-4.352 2.065-8.17 3.705-8.557 3.677-9.193 3.138-9.463 2.906-1.17-1.003-11.695-14.85-11.863-17.255-.124-2.07-.862-5.052-1.283-5.602-.232.404-.496 2.092-.604 3.558-.006.121-.092.223-.21.25-.118.026-.24-.03-.297-.136-1.175-2.13-2.804-4.422-3.375-4.422zM107.805 105.169L107.18 109.348 134.799 109.348 134.799 106.107z"/>
                <path fill="#231F20" d="M134.804 109.617H107.18c-.078.001-.153-.032-.204-.092-.051-.06-.073-.138-.06-.215l.62-4.185c.014-.138.137-.239.275-.226l26.993.938c.145.006.259.125.259.27v3.235c.003.147-.112.27-.26.275zm-27.306-.54h27.036v-2.695l-26.497-.922-.539 3.618z"/>
                <path fill="#D1D3D4" d="M22.47 18.802H8.794c-.148-.002-.267-.121-.27-.27 0-.148.12-.269.27-.269h13.674c.149 0 .27.12.27.27 0 .149-.121.27-.27.27zM15.637 26.486H8.795c-.15 0-.27-.12-.27-.27.003-.147.122-.266.27-.269h6.842c.15 0 .27.12.27.27 0 .149-.12.27-.27.27zM153.52 88.61h-9.55c-.148 0-.269-.121-.269-.27 0-.15.12-.27.27-.27h9.56c.149 0 .27.12.27.27 0 .073-.03.143-.083.194-.053.051-.125.078-.198.075zM149.977 94.287h-6.006c-.15 0-.27-.12-.27-.27 0-.148.12-.269.27-.269h6.017c.148.003.267.122.27.27 0 .073-.03.143-.083.194-.053.051-.124.078-.198.075zM152.744 103.325h-7.204c-1.02-.003-1.847-.83-1.85-1.85v-1.18c.003-1.021.83-1.847 1.85-1.85h7.204c1.02.003 1.846.829 1.85 1.85v1.164c.002.493-.191.966-.538 1.317-.347.35-.82.547-1.312.549zm-7.204-4.314c-.724 0-1.31.586-1.31 1.31v1.165c0 .723.586 1.31 1.31 1.31h7.204c.347 0 .68-.138.926-.384.246-.245.384-.579.384-.926v-1.192c0-.347-.138-.68-.384-.926s-.579-.384-.926-.384l-7.204.027zM12.213 40.07c-2.308 0-4.179-1.872-4.179-4.18s1.871-4.179 4.18-4.179c2.307 0 4.178 1.871 4.178 4.18-.003 2.306-1.872 4.175-4.179 4.178zm0-7.82c-2.01 0-3.64 1.63-3.64 3.64 0 2.01 1.63 3.64 3.64 3.64 2.01 0 3.64-1.63 3.64-3.64-.003-2.009-1.63-3.637-3.64-3.64z"/>
                <path fill="#D1D3D4" d="M12.213 37.27c-.077-.01-.147-.05-.194-.113L10.45 35c-.057-.078-.068-.18-.029-.268.04-.088.123-.149.219-.16.096-.01.19.032.247.11l1.386 1.893 5.478-5.392c.05-.05.118-.08.189-.08.07 0 .139.03.188.08.051.05.08.12.08.191 0 .072-.029.141-.08.192l-5.726 5.64c-.051.046-.12.07-.189.065z"/>
            </g>
        </g>
    </g>
</svg>
