<svg xmlns="http://www.w3.org/2000/svg" width="166" height="24" viewBox="0 0 166 24">
    <g fill="none" fill-rule="evenodd">
        <g fill-rule="nonzero">
            <g>
                <path fill="#ED3833" d="M0 17.28V.48h6.216c1.344 0 2.456.224 3.336.672.88.448 1.536 1.064 1.968 1.848.432.784.648 1.664.648 2.64 0 .928-.208 1.78-.624 2.556-.416.776-1.064 1.4-1.944 1.872-.88.472-2.008.708-3.384.708H3.072v6.504H0zm3.072-9h2.952c1.072 0 1.844-.236 2.316-.708.472-.472.708-1.116.708-1.932 0-.832-.236-1.484-.708-1.956s-1.244-.708-2.316-.708H3.072V8.28zm14.784 9.288c-1.024 0-1.864-.164-2.52-.492-.656-.328-1.144-.764-1.464-1.308-.32-.544-.48-1.144-.48-1.8 0-1.104.432-2 1.296-2.688.864-.688 2.16-1.032 3.888-1.032H21.6V9.96c0-.816-.232-1.416-.696-1.8-.464-.384-1.04-.576-1.728-.576-.624 0-1.168.148-1.632.444-.464.296-.752.732-.864 1.308h-3c.08-.864.372-1.616.876-2.256.504-.64 1.156-1.132 1.956-1.476.8-.344 1.696-.516 2.688-.516 1.696 0 3.032.424 4.008 1.272.976.848 1.464 2.048 1.464 3.6v7.32h-2.616l-.288-1.92c-.352.64-.844 1.168-1.476 1.584-.632.416-1.444.624-2.436.624zm.696-2.4c.88 0 1.564-.288 2.052-.864.488-.576.796-1.288.924-2.136h-2.616c-.816 0-1.4.148-1.752.444-.352.296-.528.66-.528 1.092 0 .464.176.824.528 1.08.352.256.816.384 1.392.384zM27.6 17.28V0h3.072v7.2c.4-.656.94-1.172 1.62-1.548.68-.376 1.46-.564 2.34-.564 1.472 0 2.612.464 3.42 1.392.808.928 1.212 2.288 1.212 4.08v6.72h-3.048v-6.432c0-1.024-.204-1.808-.612-2.352-.408-.544-1.052-.816-1.932-.816-.864 0-1.58.304-2.148.912-.568.608-.852 1.456-.852 2.544v6.144H27.6zm18.696.288c-1.024 0-1.864-.164-2.52-.492-.656-.328-1.144-.764-1.464-1.308-.32-.544-.48-1.144-.48-1.8 0-1.104.432-2 1.296-2.688.864-.688 2.16-1.032 3.888-1.032h3.024V9.96c0-.816-.232-1.416-.696-1.8-.464-.384-1.04-.576-1.728-.576-.624 0-1.168.148-1.632.444-.464.296-.752.732-.864 1.308h-3c.08-.864.372-1.616.876-2.256.504-.64 1.156-1.132 1.956-1.476.8-.344 1.696-.516 2.688-.516 1.696 0 3.032.424 4.008 1.272.976.848 1.464 2.048 1.464 3.6v7.32h-2.616l-.288-1.92c-.352.64-.844 1.168-1.476 1.584-.632.416-1.444.624-2.436.624zm.696-2.4c.88 0 1.564-.288 2.052-.864.488-.576.796-1.288.924-2.136h-2.616c-.816 0-1.4.148-1.752.444-.352.296-.528.66-.528 1.092 0 .464.176.824.528 1.08.352.256.816.384 1.392.384zm9.048 2.112V0h3.072v17.28H56.04zm10.32.288c-1.024 0-1.864-.164-2.52-.492-.656-.328-1.144-.764-1.464-1.308-.32-.544-.48-1.144-.48-1.8 0-1.104.432-2 1.296-2.688.864-.688 2.16-1.032 3.888-1.032h3.024V9.96c0-.816-.232-1.416-.696-1.8-.464-.384-1.04-.576-1.728-.576-.624 0-1.168.148-1.632.444-.464.296-.752.732-.864 1.308h-3c.08-.864.372-1.616.876-2.256.504-.64 1.156-1.132 1.956-1.476.8-.344 1.696-.516 2.688-.516 1.696 0 3.032.424 4.008 1.272.976.848 1.464 2.048 1.464 3.6v7.32H70.56l-.288-1.92c-.352.64-.844 1.168-1.476 1.584-.632.416-1.444.624-2.436.624zm.696-2.4c.88 0 1.564-.288 2.052-.864.488-.576.796-1.288.924-2.136h-2.616c-.816 0-1.4.148-1.752.444-.352.296-.528.66-.528 1.092 0 .464.176.824.528 1.08.352.256.816.384 1.392.384z" transform="translate(-21 -53) translate(21.632 53.72)"/>
                <path fill="#121212" d="M76.176 17.28V.48h10.968v2.472h-7.896V7.56h7.176v2.4h-7.176v4.848h7.896v2.472H76.176zm12.672 0l4.32-5.952-4.32-5.952h3.288L95.16 9.6l3-4.224h3.312l-4.344 5.952 4.344 5.952H98.16l-3-4.224-3.024 4.224h-3.288zm14.592 5.28V5.376h2.736l.336 1.704c.384-.528.892-.992 1.524-1.392.632-.4 1.452-.6 2.46-.6 1.12 0 2.12.272 3 .816.88.544 1.576 1.288 2.088 2.232.512.944.768 2.016.768 3.216 0 1.2-.256 2.268-.768 3.204-.512.936-1.208 1.672-2.088 2.208-.88.536-1.88.804-3 .804-.896 0-1.68-.168-2.352-.504-.672-.336-1.216-.808-1.632-1.416v6.912h-3.072zm6.408-7.68c.976 0 1.784-.328 2.424-.984.64-.656.96-1.504.96-2.544s-.32-1.896-.96-2.568c-.64-.672-1.448-1.008-2.424-1.008-.992 0-1.804.332-2.436.996-.632.664-.948 1.516-.948 2.556s.316 1.892.948 2.556c.632.664 1.444.996 2.436.996zm9.24 2.4V5.376h2.736l.288 2.232c.432-.768 1.02-1.38 1.764-1.836.744-.456 1.62-.684 2.628-.684v3.24h-.864c-.672 0-1.272.104-1.8.312-.528.208-.94.568-1.236 1.08-.296.512-.444 1.224-.444 2.136v5.424h-3.072zm15.072.288c-1.2 0-2.264-.256-3.192-.768-.928-.512-1.656-1.232-2.184-2.16-.528-.928-.792-2-.792-3.216 0-1.232.26-2.328.78-3.288s1.24-1.708 2.16-2.244c.92-.536 2.004-.804 3.252-.804 1.168 0 2.2.256 3.096.768.896.512 1.596 1.212 2.1 2.1.504.888.756 1.876.756 2.964 0 .176-.004.36-.012.552-.008.192-.02.392-.036.6h-9.048c.064.928.388 1.656.972 2.184.584.528 1.292.792 2.124.792.624 0 1.148-.14 1.572-.42.424-.28.74-.644.948-1.092h3.12c-.224.752-.596 1.436-1.116 2.052-.52.616-1.16 1.1-1.92 1.452-.76.352-1.62.528-2.58.528zm.024-9.984c-.752 0-1.416.212-1.992.636-.576.424-.944 1.068-1.104 1.932h5.928c-.048-.784-.336-1.408-.864-1.872-.528-.464-1.184-.696-1.968-.696zm13.464 9.984c-1.056 0-1.984-.172-2.784-.516-.8-.344-1.44-.82-1.92-1.428s-.768-1.312-.864-2.112h3.096c.096.464.356.86.78 1.188.424.328.972.492 1.644.492.672 0 1.164-.136 1.476-.408.312-.272.468-.584.468-.936 0-.512-.224-.86-.672-1.044-.448-.184-1.072-.364-1.872-.54-.512-.112-1.032-.248-1.56-.408-.528-.16-1.012-.364-1.452-.612-.44-.248-.796-.568-1.068-.96s-.408-.876-.408-1.452c0-1.056.42-1.944 1.26-2.664.84-.72 2.02-1.08 3.54-1.08 1.408 0 2.532.328 3.372.984.84.656 1.34 1.56 1.5 2.712h-2.904c-.176-.88-.84-1.32-1.992-1.32-.576 0-1.02.112-1.332.336-.312.224-.468.504-.468.84 0 .352.232.632.696.84.464.208 1.08.4 1.848.576.832.192 1.596.404 2.292.636.696.232 1.252.576 1.668 1.032.416.456.624 1.108.624 1.956.016.736-.176 1.4-.576 1.992-.4.592-.976 1.056-1.728 1.392-.752.336-1.64.504-2.664.504zm12.6 0c-1.056 0-1.984-.172-2.784-.516-.8-.344-1.44-.82-1.92-1.428s-.768-1.312-.864-2.112h3.096c.096.464.356.86.78 1.188.424.328.972.492 1.644.492.672 0 1.164-.136 1.476-.408.312-.272.468-.584.468-.936 0-.512-.224-.86-.672-1.044-.448-.184-1.072-.364-1.872-.54-.512-.112-1.032-.248-1.56-.408-.528-.16-1.012-.364-1.452-.612-.44-.248-.796-.568-1.068-.96s-.408-.876-.408-1.452c0-1.056.42-1.944 1.26-2.664.84-.72 2.02-1.08 3.54-1.08 1.408 0 2.532.328 3.372.984.84.656 1.34 1.56 1.5 2.712h-2.904c-.176-.88-.84-1.32-1.992-1.32-.576 0-1.02.112-1.332.336-.312.224-.468.504-.468.84 0 .352.232.632.696.84.464.208 1.08.4 1.848.576.832.192 1.596.404 2.292.636.696.232 1.252.576 1.668 1.032.416.456.624 1.108.624 1.956.016.736-.176 1.4-.576 1.992-.4.592-.976 1.056-1.728 1.392-.752.336-1.64.504-2.664.504z" transform="translate(-21 -53) translate(21.632 53.72)"/>
            </g>
        </g>
    </g>
</svg>
