<svg xmlns="http://www.w3.org/2000/svg" width="22" height="20" viewBox="0 0 22 20">
    <g fill="none" fill-rule="evenodd">
        <g>
            <g>
                <g>
                    <path d="M0 0L24 0 24 24 0 24z" transform="translate(-21 -520) translate(20 518)"/>
                    <path fill="#474747" fill-rule="nonzero" d="M20 2c1.657 0 3 1.343 3 3v2h-2v12c0 1.657-1.343 3-3 3H4c-1.657 0-3-1.343-3-3v-2h16v2c0 .507.38.934.883.993L18 20c.507 0 .934-.38.993-.883L19 19V4H6c-.507 0-.934.38-.993.883L5 5v10H3V5c0-1.657 1.343-3 3-3h14zm-7 9v2H8v-2h5zm3-4v2H8V7h8z" transform="translate(-21 -520) translate(20 518)"/>
                </g>
            </g>
        </g>
    </g>
</svg>
