<svg xmlns="http://www.w3.org/2000/svg" width="127" height="130" viewBox="0 0 127 130">
    <g fill="none" fill-rule="evenodd">
        <g>
            <g transform="translate(-124 -144) translate(124 144)">
                <rect width="67.771" height="125.865" x="58.906" y=".306" fill="#FFF" fill-rule="nonzero" rx="12.06"/>
                <path fill="#231F20" fill-rule="nonzero" d="M119.588 126.47H66c-4.077-.003-7.382-3.305-7.388-7.382V7.394C58.612 3.313 61.919.004 66 0h53.588c4.076.003 7.38 3.307 7.383 7.382v111.694c.001 1.96-.776 3.84-2.16 5.226-1.385 1.387-3.263 2.167-5.223 2.169zM66 .589c-3.752.003-6.794 3.042-6.8 6.794v111.694c0 3.757 3.044 6.803 6.8 6.806h53.588c3.751-.003 6.791-3.043 6.794-6.794V7.394c.002-1.803-.713-3.534-1.987-4.81-1.274-1.276-3.003-1.994-4.807-1.996H66z"/>
                <path fill="#FFF" fill-rule="nonzero" d="M62.235 8.224H123.35300000000001V113.953H62.235z"/>
                <path fill="#231F20" fill-rule="nonzero" d="M123.353 8.235v105.718H62.235V8.235h61.118zm0-.588H62.235c-.325 0-.588.263-.588.588v105.718c0 .325.263.588.588.588h61.118c.325 0 .588-.263.588-.588V8.235c0-.325-.263-.588-.588-.588z"/>
                <path fill="#ED3833" fill-rule="nonzero" d="M62.235 8.224H123.35300000000001V35.977000000000004H62.235z"/>
                <rect width="40.241" height="18.124" x="66.471" y="13.1" fill="#FFF" fill-rule="nonzero" rx="7.18"/>
                <path fill="#231F20" fill-rule="nonzero" d="M102.488 31.518H70.694C68.2 31.514 66.18 29.494 66.176 27v-9.676c.004-2.494 2.024-4.515 4.518-4.518h31.794c2.494.003 4.515 2.024 4.518 4.518V27c-.003 2.494-2.024 4.514-4.518 4.518zM70.694 13.394c-2.169.003-3.926 1.76-3.93 3.93V27c.004 2.169 1.761 3.926 3.93 3.93h31.794c2.169-.004 3.926-1.761 3.93-3.93v-9.676c-.004-2.17-1.761-3.927-3.93-3.93H70.694z"/>
                <path fill="#FFF" fill-rule="nonzero" d="M123.659 13.1v18.124h-9.412c-2.333-.004-4.223-1.896-4.223-4.23v-9.67c.003-2.332 1.892-4.22 4.223-4.224h9.412z"/>
                <path fill="#231F20" fill-rule="nonzero" d="M123.659 31.518h-9.412c-2.496-.004-4.518-2.028-4.518-4.524v-9.67c.004-2.494 2.024-4.515 4.518-4.518h9.412c.162 0 .294.132.294.294v18.124c0 .162-.132.294-.294.294zm-9.412-18.124c-2.169.003-3.926 1.76-3.93 3.93v9.67c0 2.171 1.759 3.932 3.93 3.935h9.094V13.394h-9.094zM76.306 27.194H72.07c-.163 0-.295-.132-.295-.294v-2.576c0-.163.132-.295.295-.295h4.235c.161.004.29.133.294.295V26.9c-.003.161-.133.291-.294.294zm-3.941-.588h3.647v-1.988h-3.66l.013 1.988zM90.876 25.882h-12.1c-.162 0-.294-.131-.294-.294 0-.162.132-.294.294-.294h12.1c.163 0 .295.132.295.294 0 .163-.132.294-.295.294zM72.071 17.518H90.877V20.142H72.071z"/>
                <path fill="#D1D3D4" fill-rule="nonzero" d="M81.47 42.524H68.083c-.16-.004-.29-.133-.294-.295 0-.162.132-.294.294-.294h13.389c.162 0 .294.132.294.294 0 .163-.132.295-.294.295zM122.547 46.688h-59.1c-.162 0-.294-.131-.294-.294 0-.162.132-.294.294-.294h59.1c.161.003.291.133.294.294 0 .163-.132.294-.294.294z"/>
                <path fill="#ED3833" fill-rule="nonzero" d="M116.22 42.25h-.78c-1.304 0-2.5.722-3.108 1.876-.008-.105-.012-.21-.012-.316 0-2.154 1.746-3.9 3.9-3.9v-1.95l3.9 3.12-3.9 3.12v-1.95z"/>
                <path fill="#D1D3D4" fill-rule="nonzero" d="M70.176 55.43c-.895 0-1.701-.54-2.043-1.367-.342-.828-.152-1.78.482-2.411.633-.632 1.586-.82 2.412-.476.826.344 1.364 1.152 1.361 2.048-.003 1.219-.992 2.205-2.212 2.205zm0-3.83c-.896 0-1.623.727-1.623 1.624 0 .896.727 1.623 1.623 1.623.897 0 1.624-.727 1.624-1.623-.003-.896-.728-1.62-1.624-1.624zM87.824 51.6h-12.53c-.162 0-.294-.132-.294-.294 0-.163.132-.294.294-.294h12.53c.162 0 .294.131.294.294 0 .162-.132.294-.294.294zM81.547 55.43h-6.253c-.162 0-.294-.132-.294-.295 0-.162.132-.294.294-.294h6.277c.162 0 .294.132.294.294 0 .083-.034.161-.095.217-.06.056-.14.084-.223.077zM117.324 53.53h-11.648c-.16-.004-.29-.134-.294-.295 0-.162.132-.294.294-.294h11.648c.162 0 .294.132.294.294 0 .163-.132.294-.294.294zM119.018 60.306H66.57c-.163 0-.295-.132-.295-.294 0-.163.132-.294.295-.294h52.447c.162 0 .294.131.294.294 0 .162-.132.294-.294.294zM70.176 70.659c-.894 0-1.7-.54-2.043-1.366-.342-.826-.153-1.777.48-2.41.632-.632 1.583-.822 2.41-.48.826.343 1.365 1.15 1.365 2.044-.003 1.22-.991 2.209-2.212 2.212zm0-3.835c-.896 0-1.623.726-1.623 1.623s.727 1.624 1.623 1.624c.897 0 1.624-.727 1.624-1.624-.003-.895-.728-1.62-1.624-1.623zM87.824 66.824h-12.53c-.162 0-.294-.132-.294-.295 0-.162.132-.294.294-.294h12.53c.162 0 .294.132.294.294 0 .163-.132.295-.294.295zM81.547 70.659h-6.253c-.162 0-.294-.132-.294-.294 0-.163.132-.294.294-.294h6.277c.162 0 .294.131.294.294 0 .162-.132.294-.294.294h-.024zM117.324 68.741h-11.648c-.162 0-.294-.132-.294-.294.003-.161.133-.29.294-.294h11.648c.162 0 .294.132.294.294 0 .162-.132.294-.294.294zM119.018 75.535H66.57c-.162-.003-.291-.133-.295-.294 0-.162.132-.294.295-.294h52.447c.162 0 .294.132.294.294-.003.161-.133.291-.294.294zM70.176 85.882c-.895 0-1.701-.54-2.043-1.366-.342-.828-.152-1.78.482-2.411.633-.633 1.586-.82 2.412-.476.826.344 1.364 1.152 1.361 2.047-.003 1.22-.992 2.206-2.212 2.206zm0-3.83c-.896 0-1.623.728-1.623 1.624 0 .897.727 1.624 1.623 1.624.897 0 1.624-.727 1.624-1.624-.003-.895-.728-1.62-1.624-1.623zM87.824 82.053h-12.53c-.162 0-.294-.132-.294-.294 0-.163.132-.294.294-.294h12.53c.162 0 .294.131.294.294 0 .162-.132.294-.294.294zM81.547 85.882h-6.253c-.162 0-.294-.131-.294-.294 0-.162.132-.294.294-.294h6.277c.162 0 .294.132.294.294 0 .082-.034.161-.095.217-.06.056-.14.084-.223.077zM117.324 83.97h-11.648c-.16-.003-.29-.132-.294-.294 0-.162.132-.294.294-.294h11.648c.162 0 .294.132.294.294 0 .078-.031.153-.086.208-.056.056-.13.087-.208.087zM119.018 90.759H66.57c-.163 0-.295-.132-.295-.294 0-.163.132-.294.295-.294h52.447c.162 0 .294.131.294.294 0 .162-.132.294-.294.294zM70.176 101.112c-1.221 0-2.211-.99-2.211-2.212 0-1.222.99-2.212 2.211-2.212 1.222 0 2.212.99 2.212 2.212-.003 1.22-.991 2.209-2.212 2.212zm0-3.83c-.657 0-1.25.397-1.5 1.004-.251.607-.111 1.306.355 1.77.465.464 1.164.601 1.77.348.607-.253 1.001-.847.999-1.504-.003-.894-.73-1.618-1.624-1.618zM87.824 97.282h-12.53c-.162 0-.294-.131-.294-.294 0-.162.132-.294.294-.294h12.53c.162 0 .294.132.294.294 0 .163-.132.294-.294.294zM81.547 101.112h-6.253c-.162 0-.294-.132-.294-.294 0-.163.132-.294.294-.294h6.277c.162 0 .294.131.294.294 0 .162-.132.294-.294.294h-.024zM117.324 99.194h-11.648c-.162 0-.294-.132-.294-.294.003-.161.133-.291.294-.294h11.648c.162 0 .294.132.294.294 0 .078-.031.153-.086.208-.056.055-.13.086-.208.086z"/>
                <path fill="#FFF" fill-rule="nonzero" d="M62.235 105.359H123.35300000000001V113.95299999999999H62.235z"/>
                <path fill="#231F20" fill-rule="nonzero" d="M123.353 105.359v8.594H62.235v-8.594h61.118zm0-.588H62.235c-.325 0-.588.263-.588.588v8.594c0 .325.263.588.588.588h61.118c.325 0 .588-.263.588-.588v-8.594c0-.325-.263-.588-.588-.588z"/>
                <circle cx="92.794" cy="105.859" r="4.529" fill="#ED3833" fill-rule="nonzero"/>
                <path fill="#FFF" fill-rule="nonzero" d="M92.449 105.449L92.449 103.22 93.191 103.22 93.191 105.449 95.42 105.449 95.42 106.191 93.191 106.191 93.191 108.42 92.449 108.42 92.449 106.191 90.22 106.191 90.22 105.449z"/>
                <path fill="#231F20" fill-rule="nonzero" d="M92.794 110.682c-1.954-.01-3.71-1.195-4.448-3.004-.738-1.809-.314-3.885 1.076-5.259 1.389-1.374 3.469-1.775 5.27-1.017 1.8.758 2.967 2.527 2.955 4.48-.016 2.665-2.188 4.813-4.853 4.8zm0-9.064c-2.336.013-4.222 1.912-4.217 4.249.004 2.336 1.897 4.229 4.233 4.233 2.336.004 4.236-1.881 4.249-4.218.003-1.132-.445-2.218-1.246-3.019-.8-.8-1.887-1.248-3.019-1.245z"/>
                <rect width="5.171" height="4.035" x="66.9" y="107.641" fill="#ED3833" fill-rule="nonzero" rx="1.72"/>
                <rect width="5.171" height="4.035" x="78.553" y="107.641" fill="#ED3833" fill-rule="nonzero" rx="1.72"/>
                <rect width="5.171" height="4.035" x="101.865" y="107.641" fill="#ED3833" fill-rule="nonzero" rx="1.72"/>
                <rect width="5.171" height="4.035" x="113.518" y="107.641" fill="#ED3833" fill-rule="nonzero" rx="1.72"/>
                <path fill="#D1D3D4" fill-rule="nonzero" d="M93.612 4.753h-4.965c-.162 0-.294-.132-.294-.294 0-.163.132-.294.294-.294h4.965c.162 0 .294.131.294.294 0 .162-.132.294-.294.294zM96.941 4.753h-1.647c-.162 0-.294-.132-.294-.294 0-.163.132-.294.294-.294h1.665c.162 0 .294.131.294.294 0 .081-.033.159-.092.214-.06.056-.139.085-.22.08z"/>
                <circle cx="92.794" cy="119.659" r="3.476" fill="#D1D3D4" fill-rule="nonzero"/>
                <path fill="#FFF" fill-rule="nonzero" d="M6.735 37.306c.035-.942-.364-1.848-1.082-2.459-.865-.588-2.047-.394-3.041-.041-.598.171-1.144.489-1.588.923C.047 36.806.359 38.494.8 39.876c.701 2.218 1.564 4.38 2.582 6.471.074.207.215.383.4.5.277.135 4.236-.535 4.547-.547 1.606-.07.289-1.388-.24-3.359-.213-.765-.807-1.43-1.065-2.188-.395-1.124-.23-2.259-.289-3.447z"/>
                <path fill="#231F20" fill-rule="nonzero" d="M3.965 47.182c-.106.008-.213-.008-.312-.047-.246-.144-.434-.369-.535-.635-1.025-2.112-1.894-4.296-2.6-6.535-.412-1.312-.836-3.194.288-4.43.475-.473 1.062-.819 1.706-1.006 1.406-.5 2.517-.47 3.312.077.789.664 1.224 1.658 1.176 2.688V38.3c-.049.805.04 1.613.265 2.388.127.337.289.66.482.965.247.388.444.805.588 1.241.155.542.352 1.071.589 1.582.335.771.588 1.324.323 1.765-.23.282-.584.433-.947.406-.076 0-.588.077-1.041.147-1.09.188-2.19.318-3.294.388zm.347-12.423c-.548.018-1.089.127-1.6.323-.554.155-1.06.447-1.47.847-.918 1.012-.536 2.689-.166 3.86.699 2.216 1.558 4.378 2.571 6.47.048.146.14.274.265.365.24.035 2.312-.277 3.3-.424.67-.1 1-.147 1.106-.153.37 0 .453-.1.47-.13.094-.152-.147-.705-.359-1.176-.253-.54-.463-1.098-.629-1.67-.126-.386-.302-.754-.524-1.095-.209-.34-.386-.698-.529-1.07-.243-.838-.343-1.711-.294-2.582v-.977c0-.588-.188-1.694-.953-2.23-.35-.24-.764-.365-1.188-.358z"/>
                <path fill="#FFF" fill-rule="nonzero" d="M55.882 118.465c.083.27 2.76 4.735 2.76 4.735s2.94.876 5.134-1.041l-2.288-5.688-5.606 1.994z"/>
                <path fill="#231F20" fill-rule="nonzero" d="M60.259 123.7c-.576.004-1.15-.07-1.706-.218-.068-.022-.127-.068-.165-.13-.812-1.352-2.706-4.528-2.794-4.805-.047-.15.034-.308.182-.359l5.618-2.017c.15-.052.313.023.37.17l2.283 5.712c.045.116.012.248-.082.33-1.034.876-2.352 1.344-3.706 1.317zm-1.435-.759c.511.118 2.788.553 4.588-.876l-2.094-5.247-5.036 1.806c.424.788 1.689 2.888 2.542 4.317zM31.582 122.53l-7.164 5.176c.04 2.059 4.458 1.506 8.523.53 4.065-.977 4.877-1.836 4.877-1.836l-.1-3.53-6.136-.34z"/>
                <path fill="#231F20" fill-rule="nonzero" d="M27.165 129.412c-.87.071-1.738-.135-2.483-.588-.36-.26-.579-.674-.588-1.118 0-.096.046-.185.124-.241l7.164-5.177c.054-.04.121-.06.189-.053l6.135.341c.154.004.276.13.276.283l.094 3.53c.005.077-.023.154-.076.211-.094.094-.994.941-5.024 1.912-1.897.514-3.847.816-5.811.9zm-2.46-1.565c.033.208.148.395.319.518.929.723 3.711.588 7.829-.418 3.206-.77 4.347-1.465 4.647-1.682l-.082-3.118-5.765-.318-6.947 5.018z"/>
                <path fill="#FFF" fill-rule="nonzero" d="M37.5 116.818l.218 6.053s-3.577 1.605-6.136-.342l-1.111-7.117 7.029 1.406z"/>
                <path fill="#231F20" fill-rule="nonzero" d="M34.67 123.794c-1.172.028-2.32-.334-3.264-1.03-.06-.046-.1-.113-.112-.188l-1.118-7.117c-.014-.096.019-.192.089-.259.07-.069.169-.098.264-.076l7.03 1.405c.133.03.23.146.235.283l.218 6.047c.01.12-.06.235-.17.282-1.006.418-2.083.64-3.171.653zm-2.811-1.441c2.059 1.482 4.83.588 5.559.312l-.206-5.612-6.388-1.282 1.035 6.582z"/>
                <path fill="#231F20" fill-rule="nonzero" d="M27.124 73.265l19.929-3.941 15.953 49.135c-2.153 1.73-5.056 2.204-7.647 1.247L38.44 86.365l.177 33.394c-3.636 1.706-8.236-.241-8.236-.241-3.158-9.947-5.294-46.306-5.294-46.306"/>
                <path fill="#231F20" fill-rule="nonzero" d="M35.153 120.759c-1.679-.022-3.34-.351-4.9-.97-.078-.035-.138-.102-.165-.183-3.135-9.87-5.294-46.012-5.323-46.377-.005-.078.021-.154.073-.213.052-.058.125-.094.203-.098.16-.004.297.116.312.276 0 .365 2.159 36.112 5.253 46.106.73.276 4.576 1.618 7.7.27l-.177-33.2c0-.136.092-.255.224-.288.134-.031.272.032.335.153l16.86 33.241c2.408.837 5.075.418 7.11-1.117l-15.805-48.7-19.677 3.87c-.162.031-.319-.075-.35-.238-.03-.162.076-.319.239-.35L46.995 69c.144-.031.29.053.334.194l15.953 49.141c.037.115 0 .241-.094.318-2.237 1.81-5.257 2.32-7.964 1.347-.064-.027-.115-.075-.148-.135L38.724 87.629l.164 32.153c.003.114-.061.218-.164.265-1.124.497-2.343.74-3.571.712zM58.635 123.2s.724 3.247 1.03 3.612c.306.364 10.923 2.7 11.511 1.453.589-1.247-7.388-6.106-7.388-6.106s-2.912 1.453-5.153 1.041z"/>
                <path fill="#231F20" fill-rule="nonzero" d="M69.77 128.918c-2.94 0-9.946-1.453-10.335-1.918-.388-.465-.911-2.941-1.082-3.735-.023-.098.006-.2.076-.27.067-.07.165-.102.26-.083 2.117.388 4.923-1 4.952-1.012.088-.05.195-.05.283 0 7.382 4.512 7.705 6.03 7.5 6.47-.16.348-.589.448-.948.489-.233.036-.469.056-.705.059zm-10.752-5.389c.203 1.05.494 2.082.87 3.083 1.823.532 3.678.946 5.553 1.24 4 .677 5.294.477 5.453.272.241-.53-3.082-3.153-7.141-5.648-.588.295-2.788 1.242-4.735 1.053z"/>
                <path fill="#ED3833" fill-rule="nonzero" d="M33.365 40.947l-6.712 2.506s-3.365 24.282-2.4 31.441c0 0 19.359 1.088 25.43-2.259 0 0-3.454-18.059-2.83-21.406.399-2.377.639-4.778.718-7.188L39.447 41.1l-6.082-.153z"/>
                <path fill="#FFF" fill-rule="nonzero" d="M61.176 39.553c.165-.607.225-1.238.177-1.865-.118-.847.1-2.635-.118-3.282-.217-.647-2.588-2.559-2.411-2.912.346-.435.938-.589 1.452-.376.518.253 2.465 2.353 2.465 2.353 1.953-1.06 3.918-1.989 5.83-3.106.215-.137.446-.248.688-.33.306-.075.622-.095.935-.059.333.006.66.097.947.265.953.665-.935 2.353-1.406 2.983-.675.788-1.283 1.632-1.817 2.523-.394.753-1.053 2.482-1.73 2.9-.343.223-.71.409-1.094.553l-.688 1.388-3.23-1.035z"/>
                <path fill="#231F20" fill-rule="nonzero" d="M64.406 40.859h-.088L61.07 39.84c-.074-.022-.135-.072-.172-.139-.036-.067-.044-.146-.023-.22.155-.574.211-1.171.165-1.764-.037-.5-.037-1.001 0-1.5.042-.576.017-1.154-.076-1.724-.337-.496-.732-.95-1.177-1.353-.994-1-1.388-1.423-1.206-1.765.419-.58 1.184-.792 1.842-.511.866.664 1.668 1.408 2.394 2.223.706-.376 1.411-.74 2.117-1.1 1.177-.588 2.353-1.217 3.53-1.888.235-.15.488-.27.753-.359.34-.082.693-.104 1.04-.065.387.002.766.11 1.095.312.212.142.352.37.382.624.083.747-.747 1.676-1.353 2.353-.153.17-.288.317-.37.423l-.488.624c-.494.576-.932 1.198-1.306 1.859-.089.17-.194.388-.306.635-.412.894-.93 2.012-1.524 2.353-.346.218-.712.403-1.094.553l-.618 1.282c-.052.101-.156.165-.27.165zm-2.894-1.506l2.74.853.59-1.177c.032-.072.094-.127.17-.153.363-.136.71-.312 1.035-.523.447-.277.965-1.394 1.306-2.13.118-.252.223-.482.312-.658.393-.696.852-1.352 1.37-1.96.165-.2.324-.405.483-.587.123-.162.255-.317.394-.465.44-.494 1.264-1.406 1.176-1.888-.007-.089-.058-.168-.135-.212-.243-.137-.516-.21-.794-.212-.28-.032-.562-.016-.835.047-.219.08-.428.182-.624.306-1.176.677-2.353 1.3-3.53 1.9-.764.394-1.535.788-2.3 1.177-.117.062-.262.038-.352-.06-.721-.816-1.508-1.571-2.353-2.258-.347-.128-.735-.06-1.018.176.318.42.67.814 1.053 1.177.53.447.98.983 1.33 1.582.122.634.158 1.28.105 1.924-.034.47-.034.942 0 1.412.056.579.014 1.163-.123 1.729z"/>
                <path fill="#FFF" fill-rule="nonzero" d="M64.806 33.194c1.131.16 2.223.532 3.218 1.094"/>
                <path fill="#231F20" fill-rule="nonzero" d="M68.024 34.582c-.057 0-.112-.017-.16-.047-.958-.539-2.01-.894-3.1-1.047-.16-.021-.273-.168-.252-.33.021-.16.168-.273.33-.252 1.177.164 2.312.549 3.346 1.135.134.09.171.271.083.406-.053.086-.147.137-.247.135z"/>
                <path fill="#FFF" fill-rule="nonzero" d="M65.735 33.382l3.406-2.664"/>
                <path fill="#231F20" fill-rule="nonzero" d="M65.735 33.676c-.09-.001-.175-.045-.23-.117-.098-.129-.074-.313.054-.412l3.4-2.665c.082-.072.198-.092.3-.053.102.04.173.133.186.241.012.11-.037.216-.127.277l-3.4 2.665c-.052.04-.116.064-.183.064z"/>
                <path fill="#FFF" fill-rule="nonzero" d="M67.124 33.824l3.317-3.165"/>
                <path fill="#231F20" fill-rule="nonzero" d="M67.124 34.118c-.083.001-.162-.033-.218-.094-.055-.055-.087-.129-.087-.206 0-.078.032-.152.087-.206l3.323-3.165c.054-.057.128-.09.206-.09.078 0 .153.033.206.09.056.055.087.13.087.209 0 .078-.031.153-.087.209l-3.323 3.164c-.052.053-.121.084-.194.089z"/>
                <path fill="#FFF" fill-rule="nonzero" d="M62.724 33.447s1.7 2.041 1.311 3.624"/>
                <path fill="#231F20" fill-rule="nonzero" d="M64.035 37.365h-.076c-.075-.018-.14-.066-.18-.132-.04-.067-.051-.146-.032-.221.353-1.424-1.23-3.347-1.247-3.365-.067-.08-.086-.191-.05-.29.037-.099.123-.17.227-.188.103-.018.209.02.276.102.07.088 1.765 2.17 1.365 3.882-.037.125-.152.212-.283.212z"/>
                <path fill="#ED3833" fill-rule="nonzero" d="M26.653 43.453L13.77 50.588 7.888 40.253l-6.47 3.076s1.717 12.118 3.694 15.577c1.976 3.459 16.812-.965 22.494-5.577l-.953-9.876zM47.57 44.041l7.965 3.718 5.16-9.694 5.74 1.494s-3.717 16.976-7.84 16.694c-4.124-.282-18.983-5.23-18.983-5.23l7.959-6.982z"/>
                <path fill="#231F20" fill-rule="nonzero" d="M24.159 68.553c-.163 0-.294-.132-.294-.294-.077-6.47 2.106-20.918 2.13-21.065.01-.077.053-.147.116-.193.062-.046.141-.066.218-.054.16.027.269.175.247.335 0 .147-2.2 14.56-2.123 20.97 0 .164-.13.298-.294.3zM58.594 56.547c-2.665-.041-15.882-4.212-16.47-4.394-.074-.023-.135-.075-.17-.143-.036-.069-.043-.148-.019-.222.022-.074.073-.137.142-.174.068-.036.149-.044.223-.02.141.041 13.706 4.33 16.288 4.365.163 0 .294.132.294.294 0 .162-.131.294-.294.294h.006zM53.818 51.447c-.048 0-.094-.012-.136-.035-.069-.035-.121-.097-.145-.171-.023-.074-.015-.155.022-.223l5.882-11.27c.036-.07.1-.123.174-.146.076-.024.157-.016.226.022.14.077.194.25.124.394l-5.883 11.27c-.05.099-.153.16-.264.16zM.865 44.706h-.07c-.159-.04-.256-.2-.219-.359L11.594.353c.038-.157.196-.255.353-.218.158.04.255.2.218.36L1.176 44.481c-.032.143-.166.24-.311.224z"/>
                <path fill="#FFF" fill-rule="nonzero" d="M4.953 34.547c-.853-.523-1.959 0-2.747.588-.246.175-.448.404-.588.67-.136.28-.076.615.147.83.29.16.637.178.94.047l1.919-.511c-.452.591-.777 1.27-.953 1.994-.124.398-.124.825 0 1.223.14.405.537.664.964.63"/>
                <path fill="#231F20" fill-rule="nonzero" d="M4.5 40.341c-.503-.03-.94-.356-1.112-.83-.138-.456-.138-.943 0-1.4.131-.504.329-.988.588-1.44l-1.176.311c-.387.15-.82.113-1.176-.1-.331-.296-.425-.777-.23-1.176.16-.314.395-.584.682-.788.548-.424 1.936-1.336 3.083-.624.068.04.116.106.134.183.017.077.003.157-.04.223-.039.067-.104.116-.18.133-.075.018-.155.004-.22-.039-.841-.512-1.965.241-2.412.588-.211.145-.386.336-.512.56-.078.157-.055.347.06.482.217.094.464.094.682 0l1.917-.506c.12-.038.251.01.318.117.073.102.073.24 0 .341-.443.548-.769 1.181-.959 1.86-.106.34-.106.705 0 1.046.089.274.348.456.635.447.163-.027.317.082.344.245.028.162-.081.316-.244.344l-.182.023z"/>
                <path fill="#FFF" fill-rule="nonzero" d="M11.494 1.941s7.006 4.024 25.97 3.847L35.736 19.03s-13.906.895-27.7-3.258c1.598-1.527 2.842-3.384 3.647-5.442 1.26-3.34-.188-8.388-.188-8.388z"/>
                <path fill="#ED3833" d="M23.732 9.102c.12-.214.314-.46.58-.74.398-.418 1.702-.748 2.551-.407.85.34 1.418 1.123 1.49 2.05.074.927-.36 1.857-1.137 2.439l-4.755 3.59-3.272-4.498c-.537-.73-.619-1.72-.216-2.593.404-.873 1.23-1.497 2.167-1.636.938-.139 1.954.269 2.287.956.222.458.323.738.305.84z"/>
                <path fill="#231F20" fill-rule="nonzero" d="M32.453 19.412c-4.965 0-14.806-.43-24.506-3.353-.1-.032-.176-.116-.198-.22-.022-.103.013-.21.092-.28 1.552-1.49 2.768-3.296 3.565-5.294 1.223-3.212-.182-8.16-.194-8.236-.035-.114.005-.238.1-.311.1-.068.23-.068.33 0 .07.04 7.2 3.988 25.817 3.806.087-.012.173.027.223.1.057.064.084.15.077.235L36.029 19.1c-.02.14-.135.246-.276.253-.041-.024-1.259.059-3.3.059zM8.6 15.642c12.453 3.64 24.994 3.21 26.876 3.123L37.13 6.1c-15.788.106-23.158-2.659-25.188-3.594.347 1.476 1.053 5.218 0 7.941-.756 1.933-1.892 3.695-3.341 5.182v.012z"/>
                <path fill="#FFF" fill-rule="nonzero" d="M31.235 31.453c-.228-.3-.576-.486-.953-.506-.167-.006-.33.05-.458.159-.14.152-.227.347-.248.553-.12.55-.12 1.12 0 1.67.122.554.422 1.052.853 1.418.483.382 1.147.47 1.412-.194.398-1.065.164-2.263-.606-3.1z"/>
                <path fill="#231F20" fill-rule="nonzero" d="M31.176 35.335c-.34-.011-.668-.138-.929-.359-.484-.406-.82-.96-.959-1.576-.123-.582-.123-1.183 0-1.765.026-.27.144-.524.336-.717.182-.159.417-.243.658-.236.46.015.89.23 1.177.589.84.92 1.096 2.231.665 3.4-.109.313-.364.552-.683.64-.087.021-.176.029-.265.024zm-.905-4.117c-.096-.006-.19.023-.265.082-.088.112-.141.247-.153.388-.11.512-.11 1.041 0 1.553.113.488.379.927.759 1.253.177.17.421.25.664.218.14-.044.248-.154.289-.294.34-.97.113-2.049-.589-2.8-.17-.215-.42-.351-.694-.377l-.011-.023z"/>
                <path fill="#FFF" fill-rule="nonzero" d="M42.465 33.935c1.176-1.317 1.764-3.84 1.594-5.453-.188-1.894-1.977-4.617-4.235-3.635-.164.094-.347.15-.536.165-.282 0-.488-.253-.694-.453-.994-.953-2.565-.988-3.912-.683-1.538.295-2.93 1.104-3.947 2.295-.637.803-.985 1.798-.988 2.823 0 .924.488 1.647.588 2.547.16 1.459 0 3.67 1.66 4.365 1.876.8 4.6-.047 6.5-.406 1.11-.206 2.746-.5 3.64-1.241.117-.1.227-.209.33-.324z"/>
                <path fill="#231F20" fill-rule="nonzero" d="M33.876 36.53c-.681.018-1.36-.102-1.994-.354-1.547-.652-1.676-2.44-1.764-3.876 0-.253-.042-.5-.065-.73-.053-.367-.143-.727-.27-1.076-.185-.478-.292-.982-.318-1.494.004-1.093.375-2.154 1.053-3.012 1.06-1.244 2.512-2.09 4.117-2.4 1.024-.23 2.941-.44 4.183.76l.082.081c.147.147.288.283.418.289.106-.016.21-.05.306-.1l.1-.042c.778-.354 1.682-.299 2.411.148 1.254.86 2.07 2.224 2.236 3.735.17 1.7-.406 4.288-1.671 5.676-.11.125-.23.24-.359.347-.923.77-2.512 1.07-3.67 1.289h-.106l-1.053.223c-1.19.304-2.409.483-3.636.535zM36.118 24c-.461.006-.92.059-1.37.159-1.472.282-2.803 1.056-3.777 2.194-.598.751-.925 1.681-.93 2.641.026.45.123.893.288 1.312.139.381.24.775.3 1.176 0 .236.042.489.06.753.1 1.341.211 2.865 1.423 3.377 1.459.623 3.564.164 5.253-.2l1.076-.224h.1c1.1-.206 2.6-.488 3.406-1.176.107-.089.207-.185.3-.288 1.135-1.253 1.677-3.689 1.518-5.23-.146-1.324-.855-2.52-1.947-3.282-.567-.351-1.271-.396-1.877-.118l-.088.041c-.177.107-.382.16-.588.153-.317-.042-.605-.204-.806-.453l-.077-.076c-.63-.532-1.44-.803-2.264-.759z"/>
                <path fill="#FFF" fill-rule="nonzero" d="M33.841 38.676l-.9 4.318s1.347 2.741 4.212 2.053c2.865-.688 3.353-2.882 3.353-2.888l.282-4.63.177-2.853c.058-.288.076-.583.053-.876-.094-.294-.43-.518-.589-.759-.261-.37-.488-.764-.676-1.176-.398-.803-.68-1.659-.835-2.541-1.087.061-2.159-.273-3.018-.942-.324.536.63 1.077.553 1.7-1.035-.188-2.353-.553-3.082-1.33-.365-.046-1.824 2.477-2.053 3.483-.308 1.309-.37 2.663-.183 3.994.312 2.247 2.706 2.447 2.706 2.447z"/>
                <path fill="#231F20" fill-rule="nonzero" d="M36.247 45.453c-2.406 0-3.559-2.306-3.576-2.353-.018-.064-.018-.13 0-.194l.84-4.012c-1.358-.214-2.432-1.264-2.676-2.618-.192-1.372-.126-2.769.194-4.117.147-.677 1.618-3.8 2.353-3.712.068.012.13.045.177.094.693.625 1.554 1.034 2.476 1.177-.051-.094-.108-.184-.17-.27-.23-.336-.518-.754-.241-1.177.044-.073.116-.124.2-.142.083-.01.166.011.235.06.8.628 1.802.942 2.817.882.148-.006.278.096.306.24.156.853.431 1.679.818 2.454.182.387.399.757.647 1.106.064.078.133.153.206.223.192.16.347.362.453.588.053.25.053.509 0 .76-.016.075-.028.152-.035.229l-.453 7.482s-.477 2.406-3.577 3.153c-.324.088-.658.138-.994.147zm-3-2.506c.247.447 1.477 2.353 3.83 1.812 2.652-.635 3.129-2.641 3.135-2.659l.453-7.441c.005-.095.016-.19.035-.283.03-.16.042-.324.035-.488-.077-.145-.18-.275-.306-.382-.094-.09-.182-.187-.264-.288-.27-.37-.507-.764-.706-1.177-.37-.746-.643-1.537-.812-2.353-.826.012-1.64-.201-2.353-.617l.059.094c.246.281.38.643.376 1.017-.01.08-.052.153-.117.2-.066.05-.15.07-.23.053-1.12-.13-2.184-.562-3.076-1.253-.754.95-1.339 2.023-1.73 3.17-.297 1.273-.359 2.589-.182 3.883.306 1.965 2.353 2.17 2.47 2.177.085.01.161.055.212.123.048.067.065.15.048.23l-.877 4.182z"/>
                <path fill="#231F20" fill-rule="nonzero" d="M33.365 40.947c1.002.197 2.036-.114 2.764-.83 1.265-1.217 1.177-2.24 1.177-2.24-1.004.703-2.242.99-3.453.8l-.488 2.27z"/>
                <path fill="#231F20" fill-rule="nonzero" d="M33.947 41.3c-.22.002-.439-.021-.653-.07-.152-.038-.247-.188-.218-.342l.477-2.27c.014-.076.058-.143.123-.185.064-.042.143-.056.218-.039 1.13.169 2.283-.098 3.224-.747.086-.06.199-.072.295-.028.097.043.163.135.175.24 0 .047.094 1.176-1.259 2.476-.637.622-1.492.968-2.382.965zm-.235-.588c.819.07 1.627-.222 2.212-.8.442-.396.78-.895.982-1.453-.87.468-1.86.663-2.841.559l-.353 1.694z"/>
                <path fill="#FFF" fill-rule="nonzero" d="M36.165 31.612S34.582 33.8 34.924 34.2c.34.4 1.352.182 1.352.182"/>
                <path fill="#231F20" fill-rule="nonzero" d="M35.688 34.741c-.364.028-.724-.1-.988-.353-.33-.382.088-1.376 1.224-2.94.097-.13.279-.159.411-.066.065.045.108.115.12.192.013.078-.007.158-.055.22-.7.97-1.276 2.03-1.23 2.265.124.135.689.123 1.042.047.076-.018.157-.004.223.038.066.042.113.109.13.185.03.16-.072.315-.23.353-.213.041-.43.06-.647.06z"/>
                <circle cx="37.982" cy="31.507" r="1" fill="#231F20" fill-rule="nonzero" transform="rotate(-2.81 37.982 31.507)"/>
                <circle cx="34.474" cy="31.413" r="1" fill="#231F20" fill-rule="nonzero" transform="rotate(-75.67 34.474 31.413)"/>
                <path fill="#231F20" fill-rule="nonzero" d="M35.294 37.765c-.445.02-.877-.158-1.176-.489-.677-.84-.377-2.182-.365-2.24.031-.14.158-.236.3-.23 3.453.165 3.465.182 3.576.318.055.067.077.156.06.24-.093.536-.306 1.043-.624 1.483-.414.563-1.066.902-1.765.918h-.006zm-1-2.353c-.097.516.004 1.049.282 1.494.188.203.46.305.736.276.512-.02.987-.273 1.288-.688.207-.276.358-.59.447-.923-.576-.053-1.8-.118-2.735-.165l-.018.006z"/>
                <path fill="#FFF" fill-rule="nonzero" d="M40.053 33.612c-.03-.941.93-2.212 1.959-1.63.356.24.6.613.676 1.036.453 1.953-1.064 2.611-2.094 3.07"/>
                <path fill="#231F20" fill-rule="nonzero" d="M40.618 36.37c-.118.004-.227-.063-.277-.17-.067-.143-.007-.314.135-.382 1.053-.465 2.318-1.036 1.924-2.73-.06-.342-.252-.646-.535-.847-.242-.155-.552-.155-.794 0-.444.31-.713.812-.724 1.353 0 .163-.132.294-.294.294-.162 0-.294-.131-.294-.294.015-.738.391-1.421 1.006-1.83.428-.261.966-.261 1.394 0 .417.269.71.692.812 1.177.511 2.17-1.177 2.941-2.224 3.388-.039.025-.083.04-.13.042z"/>
            </g>
        </g>
    </g>
</svg>
