<svg xmlns="http://www.w3.org/2000/svg" xmlns:xlink="http://www.w3.org/1999/xlink" width="46" height="46" viewBox="0 0 46 46">
    <defs>
        <circle id="y9eokrdika" cx="20" cy="20" r="20"/>
    </defs>
    <g fill="none" fill-rule="evenodd">
        <g>
            <g>
                <g>
                    <g transform="translate(-165 -2159) translate(0 2159) translate(168 3)">
                        <use fill="#64AC10" xlink:href="#y9eokrdika"/>
                        <circle cx="20" cy="20" r="21.5" fill="#ED3833" stroke="#FFF" stroke-width="3"/>
                    </g>
                    <g>
                        <path d="M0 0L24 0 24 24 0 24z" transform="translate(-165 -2159) translate(0 2159) translate(168 3) translate(8 8)"/>
                        <path fill="#FFF" fill-rule="nonzero" d="M11 11L11 5 13 5 13 11 19 11 19 13 13 13 13 19 11 19 11 13 5 13 5 11z" transform="translate(-165 -2159) translate(0 2159) translate(168 3) translate(8 8)"/>
                    </g>
                </g>
            </g>
        </g>
    </g>
</svg>
