<svg xmlns="http://www.w3.org/2000/svg" width="25" height="25" viewBox="0 0 25 25">
    <g fill="none" fill-rule="evenodd">
        <g>
            <g transform="translate(-20 -531) translate(20 531)">
                <circle cx="12.5" cy="12.5" r="12.5" fill="#F4E7E7"/>
                <path fill="#E02020" fill-rule="nonzero" d="M6.636 5.303l4-4c.368-.369.965-.369 1.333 0 .369.368.369.965 0 1.333l-4 4 4 4c.369.368.369.965 0 1.333-.368.369-.965.369-1.333 0l-4-4-4 4c-.368.369-.965.369-1.333 0-.369-.368-.369-.965 0-1.333l4-4-4-4c-.369-.368-.369-.965 0-1.333.368-.369.965-.369 1.333 0l4 4z" transform="translate(6 6)"/>
            </g>
        </g>
    </g>
</svg>
