<svg xmlns="http://www.w3.org/2000/svg" width="148" height="123" viewBox="0 0 148 123">
    <g fill="none" fill-rule="evenodd">
        <g>
            <g transform="translate(-113 -144) translate(113 144)">
                <path fill="#FFF" fill-rule="nonzero" d="M47.624 92.36l-5.536 8.87 12.513 8.637L67.677 97.61s-6.91-17.986-8.871-19.28c-1.96-1.296-11.182 14.029-11.182 14.029z"/>
                <path fill="#231F20" fill-rule="nonzero" d="M54.6 110.106c-.044 0-.087-.014-.123-.04l-12.513-8.636c-.098-.067-.126-.2-.062-.301l5.531-8.871c.346-.568 8.232-13.573 10.902-14.167.207-.057.427-.025.608.088 1.983 1.331 8.658 18.652 8.942 19.388.031.084.008.179-.058.24l-13.075 12.241c-.04.04-.095.06-.151.058zm-12.21-8.92l12.189 8.428 12.84-12.047c-1.956-5.083-7.18-18.013-8.715-19.037-.081-.046-.178-.056-.267-.027-2.066.444-8.365 10.242-10.645 13.968l-5.402 8.715z"/>
                <path fill="#FFF" fill-rule="nonzero" d="M41.01 67.596s-.75 5.873 1.748 8.494c2.497 2.622 10.991 3.371 11.492 4.245.502.874 9.758 24.227 11.111 25.602 1.353 1.375 6.995-.75 11.24-4.746 0 0-9.678-21.606-10.02-23.477-.341-1.872 2.777-9.865 2.777-13.489L41.01 67.596z"/>
                <path fill="#231F20" fill-rule="nonzero" d="M66.714 106.589c-.547.043-1.09-.132-1.508-.488-.923-.923-4.879-10.481-8.87-20.19-1.194-2.915-2.134-5.212-2.276-5.456-.142-.244-1.717-.617-3.105-.945-2.852-.665-6.755-1.583-8.352-3.26-2.542-2.661-1.84-8.427-1.81-8.671.012-.102.093-.181.195-.191l28.343-3.38c.065-.008.13.013.177.058.046.042.071.102.071.164 0 1.907-.851 5.012-1.605 7.753-.683 2.493-1.33 4.844-1.176 5.695.337 1.823 9.91 23.211 10.007 23.428.038.087.018.187-.049.253-3.278 3.079-7.598 5.23-10.042 5.23zM41.21 67.805c-.093.976-.443 5.872 1.708 8.139 1.508 1.583 5.322 2.48 8.134 3.136 2.13.501 3.163.758 3.39 1.153.145.257.886 2.067 2.301 5.509 2.741 6.675 7.838 19.108 8.778 20.048 1.233 1.233 6.653-.798 10.814-4.644-.914-2.049-9.639-21.565-9.971-23.383-.178-.954.443-3.243 1.184-5.89.74-2.649 1.517-5.523 1.583-7.39l-27.92 3.322z"/>
                <path fill="#D1D3D4" fill-rule="nonzero" d="M73.252 102.912c-.092 0-.174-.057-.208-.142L62.842 76.964c-.022-.055-.021-.116.002-.17.024-.054.067-.096.122-.118.055-.023.116-.023.17 0 .055.024.098.068.118.124l10.202 25.81c.023.054.023.115 0 .169-.024.054-.069.095-.124.115-.025.012-.052.018-.08.018z"/>
                <path fill="#231F20" fill-rule="nonzero" d="M65.85 68c-.898 1.148-1.433 2.538-1.535 3.992-.094 2.244 2.683 7.043 2.683 7.043l6.467-4.05-3.15-7.575-4.466.59z"/>
                <path fill="#231F20" fill-rule="nonzero" d="M67.016 79.235h-.04c-.058-.017-.107-.055-.138-.106-.115-.196-2.807-4.88-2.714-7.164.102-1.49.649-2.914 1.57-4.09.036-.04.084-.066.137-.075l4.485-.625c.1-.014.196.04.235.133l3.149 7.576c.04.1.003.216-.089.275l-6.462 4.05c-.04.021-.087.03-.133.026zm-1.047-11.013c-.822 1.09-1.313 2.395-1.415 3.757-.08 1.902 2.023 5.797 2.542 6.724l6.09-3.828-3.008-7.243-4.209.59z"/>
                <path fill="#FFF" fill-rule="nonzero" d="M74.02 95.385s4.457-3.85 1.96-5.85c0 0 1.605-3.695-2.497-4.245 0 0 1.33-4.081-1.916-5.08-3.247-.997-9.577 4.33-10.242 6.246-.665 1.916 2.16 2.218 4.231 1.33 0 0-3.042 1.775-2.519 3.043.763 1.877 3.327.959 5.323.377 0 0-3.646 2.005-1.247 3.873 1.841 1.432 6.139-1.433 6.139-1.433l.767 1.739z"/>
                <path fill="#231F20" fill-rule="nonzero" d="M68.462 95.695c-.531.023-1.055-.133-1.486-.443-.57-.367-.905-1.005-.887-1.681.132-.706.52-1.338 1.09-1.775-1.773.488-3.658.794-4.342-.887-.35-.856.573-1.827 1.42-2.501-1.162.204-2.271.044-2.83-.475-.43-.395-.553-1.025-.302-1.552.697-2.005 7.181-7.408 10.517-6.383.825.227 1.52.783 1.92 1.54.684 1.33.369 2.953.209 3.547 1.166.205 1.974.692 2.404 1.455.625 1.114.24 2.453.075 2.906.45.388.711.95.719 1.543.04 2.067-2.661 4.436-2.794 4.538-.054.046-.126.064-.196.048-.067-.015-.124-.061-.155-.124l-.66-1.503c-.715.46-2.928 1.747-4.702 1.747zm-.102-4.715c.09-.002.172.053.204.138.043.104.001.225-.098.28 0 0-1.854 1.033-1.947 2.217 0 .529.276 1.02.727 1.295 1.7 1.33 5.842-1.41 5.882-1.437.054-.039.123-.05.186-.031.063.02.115.064.142.124l.643 1.46c.643-.608 2.449-2.458 2.418-3.993-.007-.518-.259-1.004-.68-1.308-.075-.064-.1-.17-.061-.262 0 0 .647-1.53 0-2.661-.386-.683-1.171-1.109-2.324-1.264-.066-.01-.124-.047-.16-.102-.036-.055-.044-.124-.022-.186 0-.023.643-2.032-.111-3.482-.342-.657-.944-1.14-1.659-1.33-3.065-.941-9.315 4.24-9.967 6.102-.176.363-.103.798.182 1.083.648.594 2.364.58 3.753-.031.107-.045.23 0 .283.104.052.104.016.23-.084.29-.745.444-2.794 1.876-2.426 2.768.639 1.561 2.763.927 4.64.373l.417-.125c.019-.011.04-.019.062-.022z"/>
                <path fill="#FFF" fill-rule="nonzero" d="M70.462 73.442s.111-3.721-3.043-2.333c-3.153 1.389-7.944 4.702-5.455 6.884 2.488 2.182 7.749-1.712 8.498-4.55z"/>
                <path fill="#231F20" fill-rule="nonzero" d="M63.769 78.854c-.714.02-1.41-.226-1.952-.692-.564-.437-.848-1.145-.74-1.85.346-2.249 4.24-4.52 6.254-5.402.962-.444 1.747-.444 2.333-.045 1.064.714 1.02 2.51 1.02 2.586.002.016.002.033 0 .049-.524 1.996-3.105 4.391-5.5 5.127-.458.145-.935.22-1.415.227zm4.91-7.829c-.406.015-.805.113-1.17.288-2.25.99-5.7 3.158-5.998 5.066-.082.556.148 1.113.6 1.45.886.776 2.084.63 2.93.373 2.219-.683 4.698-2.959 5.2-4.79 0-.205-.023-1.642-.826-2.179-.218-.143-.475-.216-.736-.208z"/>
                <path fill="#FFF" fill-rule="nonzero" d="M46.683 93.868s3.549-9.865 4.334-11.533c1.33-2.82 4.502-6.582 7.22-5.797 2.72.785 8.428 3.433 6.117 5.23-2.106 1.645-7.017-.82-7.017-.82s1.225 5.215-1.25 8.138"/>
                <path fill="#231F20" fill-rule="nonzero" d="M46.683 94.09c-.024.004-.05.004-.075 0-.056-.02-.102-.06-.127-.114-.025-.054-.027-.115-.006-.17.142-.404 3.548-9.891 4.342-11.555 1.398-2.95 4.64-6.742 7.483-5.921 1.978.572 6.436 2.444 6.79 4.28.084.523-.151 1.046-.598 1.33-1.854 1.442-5.607-.048-6.853-.611.24 1.33.74 5.389-1.384 7.895-.047.07-.13.108-.215.097-.085-.012-.155-.071-.18-.152-.027-.082-.004-.17.058-.23 2.373-2.807 1.215-7.894 1.202-7.947-.018-.085.013-.172.08-.227.067-.053.16-.061.235-.022.049.022 4.808 2.386 6.782.847.315-.177.49-.528.443-.887-.27-1.41-3.991-3.22-6.475-3.934-2.564-.745-5.669 2.95-6.96 5.682-.776 1.64-4.289 11.417-4.324 11.532-.046.075-.13.116-.218.107z"/>
                <path fill="#FFF" fill-rule="nonzero" d="M101.204 81.75S83.1 68 72.418 67.743c-2.702-.038-5.404.11-8.086.443-6.32.719-12.672 2.04-17.076 2.218-8.743.333-15.285-2.47-15.298-11.594 0-7.807 3.681-9.24 11.465-11.386 3.85-1.06 11.271-2.151 18.297-4.103 4.284-1.193 8.427-2.701 11.51-4.72C81.39 33.28 87.48 21.127 87.48 21.127l13.723 60.624z"/>
                <path fill="#231F20" fill-rule="nonzero" d="M101.204 81.95c-.048 0-.095-.015-.133-.045-.181-.137-18.185-13.714-28.657-13.963-2.692-.038-5.384.11-8.055.444-2.6.293-5.18.687-7.678 1.069-3.504.537-6.813 1.042-9.416 1.14-5.687.213-9.874-.923-12.42-3.389-2.045-1.97-3.105-4.804-3.105-8.427 0-8.015 3.992-9.488 11.63-11.6 1.628-.443 3.881-.886 6.49-1.423 3.632-.727 7.748-1.552 11.807-2.661 5.007-1.397 8.75-2.932 11.448-4.693 8.014-5.234 14.113-17.267 14.17-17.387.043-.084.134-.132.227-.12.093.01.17.077.19.169l13.724 60.62c.02.09-.019.185-.097.235-.038.021-.081.032-.125.03zM71.46 67.49h.963c4.466.106 10.694 2.506 18.504 7.128 4.715 2.794 8.605 5.593 9.927 6.564L87.379 21.747c-1.295 2.417-6.91 12.361-14.047 17.023-2.732 1.774-6.516 3.34-11.572 4.746-4.072 1.131-8.193 1.96-11.834 2.688-2.6.523-4.844.971-6.463 1.415-7.642 2.111-11.315 3.464-11.301 11.173 0 3.5.998 6.21 2.954 8.108 2.475 2.377 6.55 3.477 12.113 3.265 2.577-.098 5.877-.604 9.368-1.136 2.501-.381 5.087-.776 7.69-1.073 2.38-.293 4.775-.449 7.173-.466z"/>
                <path fill="#231F20" fill-rule="nonzero" d="M65.85 68c-6.321.719-14.194 1.974-18.594 2.373-10.033.914-14.708-1.22-15.298-10.326-.604-9.363 3.681-10.507 11.465-12.654 3.85-1.06 11.271-2.151 18.297-4.103 0 0-2.662 4.901-1.477 13.555.576 4.238 2.55 8.163 5.606 11.155z"/>
                <path fill="#231F20" fill-rule="nonzero" d="M43.468 70.799c-3.939 0-6.61-.74-8.428-2.302-1.987-1.699-3.034-4.374-3.295-8.428-.612-9.51 3.703-10.698 11.532-12.863h.089c1.628-.443 3.88-.887 6.489-1.423 3.633-.728 7.749-1.553 11.807-2.662.085-.024.176.006.23.076.059.068.068.166.023.244-.027.049-2.595 4.945-1.45 13.417.582 4.182 2.526 8.056 5.53 11.022.067.057.093.148.067.23-.027.084-.1.145-.186.156-2.914.333-6.134.772-9.248 1.198-3.588.492-6.982.958-9.35 1.175-1.393.098-2.661.16-3.81.16zm17.857-27.154c-3.921 1.064-7.869 1.858-11.373 2.559-2.599.523-4.843.971-6.462 1.415l-.089.027C35.79 49.744 31.598 50.9 32.188 60.065c.253 3.92 1.251 6.498 3.136 8.112 2.262 1.934 5.935 2.55 11.918 2.005 2.36-.213 5.766-.678 9.315-1.17 2.95-.404 5.997-.821 8.787-1.145-2.877-3.007-4.739-6.84-5.323-10.96-.963-7.186.692-11.856 1.295-13.262h.009z"/>
                <path fill="#ED3833" fill-rule="nonzero" d="M107.56 83.382c-6.71 1.224-14.242-7.85-18.762-21.476-2.27-6.925-3.59-14.126-3.925-21.406-.621-14.438 3.229-25.677 9.975-26.906 8.344-1.521 17.955 12.863 21.468 32.135 3.513 19.273-.408 36.132-8.756 37.653z"/>
                <g fill="#575757" fill-rule="nonzero">
                    <path d="M10.769 15.077L10.769 12.966 17.705 3.843 10.834 3.843 10.834 1.538 20.892 1.538 20.892 3.649 13.841 12.966 20.935 12.966 20.935 16.615z" transform="translate(113) rotate(-10 15.852 9.077)"/>
                    <path d="M1.538 17.52L1.538 16.227 5.785 10.642 1.578 10.642 1.578 9.231 7.736 9.231 7.736 10.523 3.419 16.227 7.763 16.227 7.763 18.462z" transform="translate(113) rotate(-10 4.65 13.846)"/>
                    <path d="M26.154 16.515L26.154 14.9 31.462 7.918 26.203 7.918 26.203 6.154 33.901 6.154 33.901 7.769 28.505 14.9 33.934 14.9 33.934 17.692z" transform="translate(113) rotate(-10 30.044 11.923)"/>
                </g>
                <path fill="#231F20" fill-rule="nonzero" d="M96.073 13.488c8.041 0 16.899 13.914 20.243 32.246 3.513 19.272-.408 36.127-8.756 37.648-.403.075-.813.112-1.224.111-6.387 0-13.306-8.787-17.538-21.587-2.27-6.925-3.59-14.126-3.925-21.406-.621-14.438 3.229-25.677 9.975-26.906.404-.074.814-.111 1.225-.11v.004zm0-.448c-.438 0-.874.04-1.304.12-6.836 1.242-10.992 12.237-10.34 27.358.34 7.32 1.668 14.56 3.948 21.525 4.413 13.307 11.461 21.89 17.96 21.89.437 0 .873-.04 1.303-.12 4.223-.768 7.483-5.208 9.177-12.504 1.668-7.168 1.646-16.278-.066-25.66-1.62-8.87-4.609-17.111-8.428-23.153-3.819-6.04-8.188-9.452-12.246-9.452l-.004-.004z"/>
                <path fill="#FFF" fill-rule="nonzero" d="M102.406 57l-13.608 4.906c-2.27-6.925-3.59-14.126-3.925-21.406h15.333l2.2 16.5z"/>
                <ellipse cx="101.272" cy="48.77" fill="#000" fill-rule="nonzero" rx="3.872" ry="8.317" transform="rotate(-7.83 101.272 48.77)"/>
                <path fill="#231F20" fill-rule="nonzero" d="M68.36 91.424c-.105.002-.197-.068-.221-.17-.025-.101.025-.206.119-.252 1.379-.714 2.853-1.226 4.377-1.521.121-.016.233.066.253.186.01.059-.005.118-.04.165-.035.048-.088.08-.146.088-1.475.292-2.903.79-4.24 1.477-.031.018-.067.027-.102.027zM65.556 88.004c-.056-.001-.11-.023-.15-.062-.042-.04-.066-.097-.066-.155 0-.059.024-.115.066-.156 1.352-1.309 3.114-2.111 4.99-2.27.12-.01.227.078.24.2.005.057-.012.116-.05.161-.038.045-.092.073-.15.078-1.763.166-3.42.917-4.707 2.133-.045.047-.107.073-.173.071zM73.252 93.863c-.08.016-.16-.011-.214-.072-.054-.06-.07-.145-.045-.222.026-.076.091-.133.17-.15l1.477-.63c.113-.048.244.004.293.116.05.113-.003.244-.115.293l-1.477.63c-.027.018-.057.03-.089.035zM55.39 110.745s2.906-2.28 2.977-2.52c.07-.24-13.75-13.306-13.75-13.306l-7.802 4.91 18.575 10.916z"/>
                <path fill="#231F20" fill-rule="nonzero" d="M55.39 110.967c-.039 0-.077-.011-.11-.032L36.68 100.02c-.066-.039-.108-.11-.11-.187 0-.077.04-.15.106-.19l7.833-4.933c.086-.052.196-.041.27.027 13.915 13.182 13.853 13.382 13.8 13.555 0 .075-.094.302-3.052 2.63-.04.03-.088.046-.138.045zM37.205 99.825l18.154 10.645c1.167-.918 2.391-1.925 2.72-2.262-.888-1.02-8.38-8.193-13.49-13.036l-7.384 4.653z"/>
                <path fill="#ED3833" fill-rule="nonzero" d="M56.224 110.984L38.895 96.449 5.722 117.451 45.561 122.982z"/>
                <path fill="#FFF" fill-rule="nonzero" d="M38.265 68.945c-.092-.002-.173-.058-.209-.142-2.692-6.924-2.958-13.462-.758-18.412.044-.097.071-.164.084-.195 0-.056.023-.11.065-.148.041-.038.097-.057.153-.052.126.01.222.118.217.244-.015.118-.054.231-.115.333-2.152 4.84-1.881 11.257.767 18.066.043.114-.012.241-.124.288-.025.012-.052.018-.08.018zM46.754 48.715c-.106-.003-.196-.078-.217-.182-.012-.057 0-.117.033-.165.032-.049.083-.082.14-.093l9.758-1.916c.057-.013.117-.002.166.031s.082.084.091.142c.012.058 0 .118-.032.167-.032.049-.083.083-.14.095l-9.759 1.916-.04.005zM46.754 50.63c-.106-.001-.196-.077-.217-.181-.012-.057 0-.117.033-.165.032-.048.083-.082.14-.092l9.758-1.917c.057-.013.117-.001.166.031.049.033.082.084.091.142.012.058 0 .118-.032.167-.032.05-.083.083-.14.095l-9.759 1.916-.04.005zM46.754 52.835c-.105 0-.196-.074-.217-.177-.022-.12.054-.235.173-.262l9.758-1.916c.12-.022.235.057.257.177.013.057.002.118-.03.166-.033.049-.085.082-.143.092l-9.758 1.916-.04.004z"/>
                <path fill="#D1D3D4" fill-rule="nonzero" d="M27.735 92.785c-.115-.001-.21-.089-.222-.204-.443-4.879-4.435-8.427-8.041-10.144C14.85 80.26 5.962 77.644.66 78.641c-.102.022-.205-.032-.244-.129-.04-.095-.009-.206.075-.266.444-.31.852-.617 1.291-.931 5.367-3.85 11.448-8.22 12.246-15.227 1.269-11.178-7.921-21.33-8.014-21.433-.065-.082-.065-.197 0-.28.06-.083.17-.115.266-.075.115.05 11.771 4.915 23.392-1.521 11.448-6.338 11.054-18.877 11.05-19.002-.005-.089.044-.172.123-.212.082-.036.176-.022.244.035.116.102 11.723 10.202 20.177 9.545 6.315-.438 11.994-3.999 15.139-9.492.052-.11.182-.157.292-.106.053.026.094.071.113.127.02.056.015.117-.01.17-3.218 5.64-9.047 9.291-15.525 9.727-7.886.625-18.052-7.58-20.137-9.341-.053 2.422-.887 13.169-11.28 18.917-10.028 5.58-20.1 2.839-22.957 1.859 2.004 2.444 8.675 11.39 7.567 21.13-.821 7.208-6.986 11.635-12.42 15.524l-.554.4c5.455-.6 13.75 1.876 18.185 3.96 3.708 1.748 7.833 5.43 8.295 10.508.01.121-.08.228-.2.24l-.04.017zM94.627 119.829c-.06 0-.118-.024-.16-.067-.084-.089-8.552-8.76-20.958-7.097-.058.01-.118-.006-.164-.042-.047-.036-.078-.09-.084-.148-.016-.122.07-.233.19-.249 10.899-1.472 18.816 4.906 20.847 6.742-.443-2.852-1.05-13.994 12.863-23.685 7.918-5.51 20.687-3.61 26.436-1.242-5.323-6.276-10.202-13.608-7.691-21.016 2.28-6.737 12.543-14.193 14.686-15.706-15.037-4.759-21.348-13.027-19.858-25.987.013-.123.124-.211.246-.198.123.014.21.124.197.247-1.472 12.863 4.88 20.988 19.982 25.65.084.024.145.095.157.181.013.086-.026.171-.1.218-.123.085-12.44 8.508-14.885 15.737-2.537 7.496 2.75 14.992 8.255 21.335.072.08.077.2.011.284-.065.085-.182.111-.277.062-5.11-2.497-18.682-4.919-26.901.798-15.764 10.978-12.602 23.77-12.566 23.899.025.097-.019.199-.107.248-.036.022-.077.035-.12.036z"/>
                <g stroke="#000" stroke-width="1.5">
                    <path d="M0 4.497c.56 3.086 2.437 4.436 5.63 4.05C8.824 8.16 9.914 6.31 8.901 3M14 1.497c.719 2.938 2.565 4.278 5.539 4.018C22.513 5.255 23.634 3.417 22.9 0" transform="translate(84 29)"/>
                </g>
            </g>
        </g>
    </g>
</svg>
