<svg xmlns="http://www.w3.org/2000/svg" width="18" height="18" viewBox="0 0 18 18">
    <g fill="none" fill-rule="evenodd">
        <g>
            <g>
                <g>
                    <g>
                        <g>
                            <path d="M0 0L20 0 20 20 0 20z" transform="translate(-140 -537) translate(0 322) translate(139 214)"/>
                            <path fill="#5AC245" fill-rule="nonzero" d="M6.044 15.412l.604.352c1.017.594 2.174.905 3.352.903 3.682 0 6.667-2.985 6.667-6.667S13.682 3.333 10 3.333 3.333 6.318 3.333 10c0 1.197.314 2.344.904 3.353l.351.604-.544 2 2-.545zM1.67 18.333l1.127-4.14c-.743-1.272-1.133-2.72-1.13-4.193 0-4.603 3.73-8.333 8.333-8.333 4.602 0 8.333 3.73 8.333 8.333 0 4.602-3.73 8.333-8.333 8.333-1.473.003-2.92-.387-4.192-1.129l-4.138 1.13zM6.992 6.09c.112-.008.225-.008.336-.003.045.003.09.008.135.013.133.015.279.096.328.208.248.563.49 1.13.723 1.7.052.126.021.289-.077.447-.068.107-.141.21-.22.31-.094.12-.296.342-.296.342s-.083.099-.051.221c.012.047.05.115.085.171l.05.08c.212.355.5.716.85 1.056.1.097.197.196.302.288.39.345.831.625 1.308.834l.004.001c.071.031.107.048.21.092.052.022.105.04.16.055.114.03.235-.014.305-.108.604-.731.659-.779.663-.779v.002c.085-.08.2-.118.316-.106.05.004.1.013.147.034.443.202 1.167.518 1.167.518l.485.217c.081.04.155.132.158.221.003.056.008.146-.01.311-.027.216-.093.475-.158.61-.044.094-.103.178-.175.253-.084.088-.176.168-.274.24l-.105.075c-.103.065-.21.126-.319.183-.214.114-.451.18-.694.191-.154.009-.308.02-.463.012-.007 0-.474-.072-.474-.072-1.184-.312-2.28-.896-3.2-1.705-.188-.166-.362-.345-.54-.522-.742-.738-1.302-1.533-1.642-2.285-.174-.369-.268-.77-.276-1.178-.003-.506.162-.999.47-1.4.06-.079.118-.16.218-.255.105-.1.172-.153.245-.19.096-.048.201-.076.309-.083v.001z" transform="translate(-140 -537) translate(0 322) translate(139 214)"/>
                        </g>
                    </g>
                </g>
            </g>
        </g>
    </g>
</svg>
